<svg width="2908" height="439" viewBox="0 0 2908 439" fill="none" xmlns="http://www.w3.org/2000/svg">
<rect x="1482" y="1" width="438" height="438" rx="40" fill="#F5F5F5"/>
<path d="M1521 222.812C1521.09 244.884 1538.87 262.955 1560.71 262.955C1582.63 262.928 1600.39 244.98 1600.43 222.824V217.131C1600.49 204.388 1614.18 196.495 1625.06 202.924C1626.74 203.913 1628.23 205.195 1629.46 206.71H1655.14C1650.45 189.192 1634.73 177.021 1616.78 177C1594.86 177.036 1577.1 194.99 1577.08 217.144V222.812C1577.06 231.945 1569.74 239.341 1560.7 239.341C1551.68 239.327 1544.36 231.936 1544.35 222.812C1544.35 222.191 1544.23 221.576 1543.99 221.003C1543.76 220.429 1543.41 219.907 1542.98 219.468C1542.55 219.029 1542.03 218.681 1541.46 218.443C1540.89 218.206 1540.29 218.084 1539.67 218.084H1525.67C1524.43 218.087 1523.24 218.586 1522.37 219.473C1521.49 220.359 1521 221.56 1521 222.812ZM1672.97 262.955C1655.03 262.888 1639.35 250.725 1634.64 233.233H1660.29C1668.18 243.12 1683.7 240.661 1688.22 228.807C1688.95 226.899 1689.32 224.87 1689.32 222.824V217.131C1689.35 194.977 1707.12 177.027 1729.03 177C1750.66 177 1768.29 194.558 1768.73 216.291L1768.86 222.812C1768.92 235.556 1782.61 243.448 1793.5 237.02C1795.17 236.031 1796.66 234.749 1797.89 233.233H1823.57C1818.88 250.752 1803.17 262.93 1785.22 262.956C1763.37 262.956 1745.6 244.872 1745.51 222.824L1745.38 216.93V216.679C1745.12 207.739 1737.88 200.624 1729.03 200.614C1720.01 200.629 1712.69 208.021 1712.68 217.144V222.812C1712.65 244.972 1694.89 262.928 1672.97 262.955ZM1828.61 206.722C1836.5 196.838 1852.02 199.297 1856.54 211.15C1857.27 213.062 1857.65 215.094 1857.64 217.144C1857.64 217.764 1857.76 218.379 1857.99 218.953C1858.23 219.527 1858.57 220.048 1859.01 220.487C1859.44 220.926 1859.96 221.274 1860.53 221.512C1861.09 221.749 1861.7 221.872 1862.32 221.871H1876.34C1877.57 221.868 1878.76 221.369 1879.63 220.483C1880.51 219.596 1881 218.395 1881 217.144C1880.97 194.985 1863.21 177.028 1841.29 177C1823.33 177.023 1807.61 189.2 1802.93 206.722H1828.61Z" fill="black"/>
<path d="M1661.98 419.384C1659.83 419.384 1657.8 419.096 1655.88 418.52C1653.99 417.912 1652.38 416.936 1651.03 415.592C1649.69 414.216 1648.78 412.392 1648.3 410.12H1652.67C1653.11 411.56 1653.83 412.68 1654.83 413.48C1655.85 414.28 1657.02 414.84 1658.33 415.16C1659.64 415.448 1660.95 415.592 1662.27 415.592C1663.58 415.592 1664.79 415.416 1665.91 415.064C1667.07 414.68 1667.99 414.072 1668.7 413.24C1669.43 412.408 1669.8 411.336 1669.8 410.024C1669.8 409 1669.61 408.168 1669.23 407.528C1668.87 406.888 1668.36 406.376 1667.69 405.992C1667.05 405.576 1666.28 405.24 1665.39 404.984C1664.2 404.6 1662.94 404.28 1661.59 404.024C1660.25 403.768 1658.92 403.464 1657.61 403.112C1656.33 402.76 1655.13 402.312 1654.01 401.768C1653.4 401.448 1652.81 401.064 1652.23 400.616C1651.69 400.136 1651.21 399.592 1650.79 398.984C1650.41 398.344 1650.09 397.624 1649.83 396.824C1649.61 396.024 1649.5 395.144 1649.5 394.184C1649.5 392.744 1649.72 391.496 1650.17 390.44C1650.62 389.384 1651.23 388.488 1651.99 387.752C1652.76 387.016 1653.66 386.424 1654.68 385.976C1655.71 385.528 1656.79 385.208 1657.95 385.016C1659.13 384.792 1660.31 384.68 1661.5 384.68C1663.45 384.68 1665.27 384.984 1666.97 385.592C1668.7 386.168 1670.12 387.112 1671.24 388.424C1672.39 389.736 1673.02 391.512 1673.11 393.752H1669.03C1668.87 392.408 1668.43 391.352 1667.69 390.584C1666.95 389.816 1666.04 389.272 1664.95 388.952C1663.87 388.632 1662.71 388.472 1661.5 388.472C1660.6 388.472 1659.69 388.552 1658.76 388.712C1657.87 388.872 1657.03 389.16 1656.27 389.576C1655.53 389.96 1654.94 390.504 1654.49 391.208C1654.04 391.88 1653.82 392.744 1653.82 393.8C1653.82 394.632 1653.96 395.368 1654.25 396.008C1654.57 396.648 1654.99 397.192 1655.5 397.64C1656.04 398.056 1656.63 398.408 1657.27 398.696C1658.81 399.336 1660.51 399.816 1662.36 400.136C1664.25 400.424 1666.01 400.856 1667.64 401.432C1668.6 401.752 1669.48 402.152 1670.28 402.632C1671.08 403.112 1671.75 403.672 1672.3 404.312C1672.87 404.952 1673.31 405.688 1673.59 406.52C1673.91 407.32 1674.07 408.232 1674.07 409.256C1674.07 411.112 1673.75 412.696 1673.11 414.008C1672.47 415.288 1671.59 416.328 1670.47 417.128C1669.35 417.928 1668.06 418.504 1666.59 418.856C1665.15 419.208 1663.61 419.384 1661.98 419.384ZM1686.53 419L1677.31 385.064H1682.02L1689.74 415.4L1697.14 385.064H1703.52L1710.91 415.4L1718.64 385.064H1723.15L1713.94 419H1707.6L1700.21 389.048L1692.82 419H1686.53ZM1728.02 419V385.064H1740.74C1742.63 385.064 1744.31 385.256 1745.78 385.64C1747.28 386.024 1748.56 386.632 1749.62 387.464C1750.68 388.296 1751.48 389.4 1752.02 390.776C1752.6 392.12 1752.88 393.752 1752.88 395.672C1752.88 397.56 1752.53 399.176 1751.83 400.52C1751.12 401.832 1750.2 402.904 1749.04 403.736C1747.89 404.568 1746.64 405.176 1745.3 405.56L1752.4 419H1747.84L1741.08 406.28H1732.2V419H1728.02ZM1732.2 402.488H1739.4C1740.64 402.488 1741.81 402.392 1742.9 402.2C1744.02 402.008 1745 401.672 1745.83 401.192C1746.69 400.68 1747.36 399.976 1747.84 399.08C1748.32 398.152 1748.58 396.968 1748.61 395.528C1748.64 393.896 1748.34 392.6 1747.7 391.64C1747.06 390.648 1746.12 389.944 1744.87 389.528C1743.62 389.08 1742.1 388.856 1740.31 388.856H1732.2V402.488Z" fill="black"/>
<rect x="988" width="438" height="438" rx="40" fill="#F5F5F5"/>
<path d="M1316.84 209.531L1315.24 210.434C1315.12 207.844 1314.01 205.399 1312.13 203.613C1310.85 201.815 1309.11 200.395 1307.1 199.504C1305.08 198.614 1302.86 198.284 1300.67 198.552C1298.48 198.819 1296.4 199.672 1294.66 201.022C1292.92 202.372 1291.57 204.169 1290.76 206.221C1290.26 207.324 1297.88 217.255 1297.58 218.359C1295.05 219.491 1292.78 221.137 1290.91 223.191C1289.05 225.246 1287.63 227.665 1286.75 230.296C1287.75 225.581 1284.24 223.374 1278.93 225.08C1276.26 225.926 1273.84 227.425 1271.9 229.439C1269.95 231.453 1268.54 233.919 1267.79 236.616C1268.49 231.901 1264.68 229.393 1259.26 230.697C1256.63 231.257 1254.22 232.554 1252.3 234.437C1250.38 236.32 1249.04 238.711 1248.43 241.33C1248.93 236.716 1244.82 233.706 1239.3 234.609C1236.76 234.958 1234.41 236.127 1232.6 237.938C1230.79 239.749 1229.62 242.103 1229.27 244.641C1229.27 239.926 1225.16 236.616 1219.24 236.916C1216.77 236.899 1214.39 237.789 1212.54 239.417C1210.69 241.045 1209.5 243.297 1209.21 245.744C1208.85 243.352 1207.63 241.172 1205.79 239.605C1203.94 238.038 1201.6 237.19 1199.18 237.217C1193.66 237.217 1189.15 240.427 1189.15 245.042C1188.75 242.421 1187.49 240.007 1185.56 238.189C1183.63 236.37 1181.15 235.251 1178.51 235.011C1173 234.308 1168.48 237.318 1169.58 242.032C1168.94 239.406 1167.56 237.018 1165.61 235.151C1163.65 233.284 1161.2 232.017 1158.55 231.5C1153.13 230.296 1149.32 233.004 1150.22 237.719C1149.37 235.071 1147.88 232.672 1145.89 230.731C1143.9 228.79 1141.46 227.367 1138.79 226.584C1133.47 224.879 1129.96 227.186 1131.06 231.901C1129.96 227.186 1118.12 207.324 1116.82 204.415C1113.31 196.29 1106.79 193.782 1100.87 198.998C1099.45 200.554 1098.45 202.458 1098 204.518C1097.54 206.578 1097.63 208.722 1098.26 210.735C1094.55 209.732 1092.64 211.537 1094.05 215.45C1101.47 237.318 1108.9 259.386 1115.01 281.656C1116.72 292.285 1121.18 302.282 1127.95 310.646C1133.58 315.511 1139.99 319.379 1146.91 322.082C1166.63 329.886 1187.7 333.704 1208.91 333.317C1232.84 333.568 1256.49 328.027 1277.82 317.166C1285.53 313.623 1291.74 307.479 1295.38 299.812C1300.69 286.371 1304.61 272.226 1308.72 258.785C1313.43 243.437 1316.94 227.186 1322.96 212.841C1324.47 208.428 1321.66 206.823 1316.84 209.531Z" fill="#48A2AD"/>
<path d="M1208.21 271.123C1266.59 271.123 1314.04 252.064 1314.04 228.591C1314.04 205.117 1266.69 186.058 1208.21 186.058C1149.72 186.058 1102.38 205.117 1102.38 228.591C1102.38 252.064 1149.72 271.123 1208.21 271.123Z" fill="url(#paint0_radial_999_2407)"/>
<path d="M1298.09 167.901C1295.91 165.732 1293.45 163.875 1290.76 162.384C1290.76 162.384 1223.35 184.252 1176.41 181.945C1129.46 179.638 1136.28 174.422 1112.61 189.469C1112.61 189.469 1106.09 198.798 1114.01 204.516C1125.7 212.384 1138.47 218.501 1151.93 222.672C1153.32 221.49 1155.03 220.755 1156.85 220.566C1201.58 205.117 1288.66 224.879 1298.09 167.901Z" fill="url(#paint1_linear_999_2407)"/>
<path d="M1297.99 167.901C1288.56 224.779 1201.59 205.117 1156.85 220.666C1155 220.836 1153.25 221.571 1151.83 222.772C1187.94 234.409 1232.08 236.816 1261.57 226.985C1298.59 214.647 1315.34 185.456 1297.99 167.901Z" fill="#EB5E8E"/>
<path d="M1278.93 125.871C1283.18 128.96 1286.58 133.069 1288.82 137.82C1291.07 142.571 1292.08 147.81 1291.77 153.055C1291.77 173.118 1275.41 197.995 1203.09 190.773C1130.76 183.55 1112.81 189.669 1112.81 189.669C1112.81 189.669 1090.84 159.576 1136.68 159.576C1177.81 159.576 1238.9 164.591 1253.25 155.463C1274.81 142.222 1275.62 141.82 1278.93 125.871Z" fill="url(#paint2_linear_999_2407)"/>
<path d="M1195.47 111.325C1217.63 97.482 1216.53 77.2189 1205.5 60.0654C1204.89 60.3878 1204.42 60.9241 1204.17 61.5718C1203.93 62.2195 1203.94 62.9332 1204.19 63.5764C1205.83 66.4088 1206.75 69.5988 1206.87 72.8684C1207 76.138 1206.32 79.3878 1204.9 82.3348C1198.48 91.3629 1186.74 93.6701 1167.38 104.404C1148.02 115.137 1141.9 124.466 1140.59 136.704C1140.58 137.275 1140.72 137.838 1141 138.334C1141.29 138.829 1141.7 139.237 1142.2 139.513C1146.06 141.32 1150.09 142.731 1154.24 143.726C1161.16 127.676 1180.62 119.25 1195.47 111.325Z" fill="#F77CA5"/>
<path d="M1244.02 85.5451C1234.1 74.7137 1222.09 66.0109 1208.71 59.9655C1208.27 59.7371 1207.79 59.6177 1207.3 59.6177C1206.81 59.6177 1206.33 59.7371 1205.9 59.9655C1216.53 77.1189 1217.74 97.2817 1195.87 111.225C1181.12 118.548 1161.56 127.576 1155.04 143.626C1163.88 145.814 1172.92 147.025 1182.02 147.237C1210.41 148.04 1248.53 146.535 1255.05 135.4C1261.57 124.266 1255.75 98.1845 1244.02 85.5451Z" fill="url(#paint3_linear_999_2407)"/>
<path d="M1276.72 122.059C1277.22 120.718 1277.62 119.344 1277.92 117.946C1271.43 110.136 1262.49 104.761 1252.54 102.698C1271.8 143.826 1171.29 134.899 1142.7 136.604C1138.18 136.597 1133.72 137.679 1129.71 139.756C1125.69 141.834 1122.24 144.847 1119.63 148.541C1126.12 145.644 1132.83 143.263 1139.69 141.419C1184.73 130.685 1257.66 175.726 1276.72 122.059Z" fill="#F79EBC"/>
<path d="M1281.03 124.366C1280.48 122.078 1279.53 119.904 1278.22 117.946C1277.94 119.36 1277.5 120.739 1276.92 122.059C1257.66 175.726 1184.73 130.685 1139.79 141.419C1132.93 143.282 1126.23 145.663 1119.73 148.541C1116.41 153.592 1114.54 159.454 1114.31 165.494C1143.6 156.566 1165.27 165.494 1221.65 166.397C1278.02 167.3 1285.04 141.218 1281.03 124.366Z" fill="url(#paint4_linear_999_2407)"/>
<path d="M1316.84 225.581C1311.47 228.14 1307.25 232.612 1305.01 238.12C1306.41 233.506 1303.2 231.6 1297.98 233.506C1295.32 234.49 1292.9 236.027 1290.88 238.015C1288.86 240.004 1287.28 242.399 1286.25 245.042C1287.35 240.528 1283.94 238.321 1278.52 239.826C1275.81 240.407 1273.29 241.683 1271.22 243.53C1269.14 245.376 1267.58 247.729 1266.69 250.358C1267.49 245.945 1263.78 243.437 1258.26 244.44C1255.66 244.867 1253.24 246.043 1251.3 247.825C1249.36 249.607 1247.98 251.917 1247.33 254.471C1247.83 250.158 1243.82 247.249 1238.3 247.851C1235.81 247.949 1233.43 248.869 1231.53 250.466C1229.62 252.064 1228.3 254.248 1227.77 256.678C1227.77 252.365 1223.75 249.155 1218.24 249.255C1212.72 249.355 1208.21 252.967 1208.21 257.28C1207.78 254.943 1206.54 252.834 1204.7 251.327C1202.86 249.821 1200.55 249.016 1198.17 249.054C1192.66 249.054 1188.14 251.963 1188.14 256.277C1187.64 253.903 1186.4 251.748 1184.6 250.125C1182.8 248.502 1180.52 247.495 1178.11 247.249C1172.59 246.547 1168.08 249.355 1168.98 253.769C1168.34 251.228 1166.98 248.928 1165.05 247.147C1163.13 245.367 1160.73 244.182 1158.15 243.738C1152.73 242.634 1148.92 245.042 1149.72 249.456C1148.89 246.875 1147.42 244.543 1145.46 242.669C1143.5 240.795 1141.1 239.439 1138.49 238.722C1133.17 237.117 1129.66 239.224 1130.66 243.738C1129.69 241.087 1128.17 238.671 1126.2 236.649C1124.23 234.626 1121.85 233.043 1119.23 232.001C1114.01 229.995 1110.8 232.001 1112.11 236.515C1109.93 230.977 1105.79 226.439 1100.47 223.776C1095.35 221.268 1092.44 222.873 1093.95 227.588C1100.07 241.832 1103.98 257.681 1108.29 272.628C1112.11 285.823 1116.59 298.814 1121.74 311.549C1123.54 315.072 1126.01 318.205 1129.02 320.77C1132.04 323.335 1135.53 325.28 1139.29 326.496C1161.13 335.2 1184.51 339.364 1208 338.734C1229.01 339.229 1249.96 336.246 1270 329.906C1276.82 327.939 1283.24 324.781 1288.96 320.577C1295.85 313.093 1300.39 303.742 1302 293.693C1308.22 271.926 1315.64 250.76 1322.96 229.393C1324.57 224.879 1321.76 223.274 1316.84 225.581Z" fill="url(#paint5_linear_999_2407)"/>
<path d="M1060.88 418L1048.16 384.064H1052.72L1063.91 414.4L1075.09 384.064H1079.6L1066.93 418H1060.88ZM1089.2 418.288C1088.04 418.288 1086.92 418.144 1085.84 417.856C1084.78 417.536 1083.82 417.072 1082.96 416.464C1082.12 415.824 1081.45 415.04 1080.94 414.112C1080.46 413.152 1080.22 412.048 1080.22 410.8C1080.22 409.36 1080.48 408.144 1080.99 407.152C1081.53 406.16 1082.25 405.376 1083.15 404.8C1084.04 404.224 1085.08 403.808 1086.27 403.552C1087.45 403.296 1088.68 403.168 1089.96 403.168H1097.4C1097.4 401.728 1097.2 400.48 1096.78 399.424C1096.4 398.368 1095.76 397.552 1094.86 396.976C1093.96 396.368 1092.78 396.064 1091.31 396.064C1090.41 396.064 1089.58 396.16 1088.81 396.352C1088.04 396.544 1087.39 396.848 1086.84 397.264C1086.3 397.68 1085.9 398.24 1085.64 398.944H1081.28C1081.5 397.792 1081.93 396.816 1082.57 396.016C1083.24 395.184 1084.04 394.512 1084.97 394C1085.93 393.456 1086.96 393.056 1088.04 392.8C1089.13 392.544 1090.22 392.416 1091.31 392.416C1094.96 392.416 1097.55 393.488 1099.08 395.632C1100.62 397.776 1101.39 400.672 1101.39 404.32V418H1097.98L1097.74 414.784C1097.04 415.744 1096.19 416.48 1095.2 416.992C1094.2 417.504 1093.18 417.84 1092.12 418C1091.1 418.192 1090.12 418.288 1089.2 418.288ZM1089.58 414.688C1091.18 414.688 1092.56 414.432 1093.71 413.92C1094.89 413.376 1095.8 412.592 1096.44 411.568C1097.08 410.544 1097.4 409.296 1097.4 407.824V406.576H1092.94C1091.88 406.576 1090.84 406.592 1089.82 406.624C1088.8 406.656 1087.87 406.784 1087.04 407.008C1086.2 407.232 1085.53 407.616 1085.02 408.16C1084.54 408.704 1084.3 409.488 1084.3 410.512C1084.3 411.472 1084.54 412.256 1085.02 412.864C1085.53 413.472 1086.19 413.936 1086.99 414.256C1087.82 414.544 1088.68 414.688 1089.58 414.688ZM1107.71 418V392.704H1111.64L1111.84 396.544C1112.41 395.616 1113.15 394.848 1114.04 394.24C1114.94 393.632 1115.92 393.184 1116.97 392.896C1118.06 392.576 1119.12 392.416 1120.14 392.416C1122.6 392.416 1124.52 392.928 1125.9 393.952C1127.31 394.976 1128.3 396.368 1128.88 398.128C1129.48 399.856 1129.79 401.824 1129.79 404.032V418H1125.71V405.136C1125.71 403.952 1125.63 402.816 1125.47 401.728C1125.34 400.64 1125.05 399.664 1124.6 398.8C1124.19 397.936 1123.58 397.264 1122.78 396.784C1121.98 396.272 1120.91 396.016 1119.56 396.016C1117.9 396.016 1116.48 396.48 1115.29 397.408C1114.14 398.336 1113.26 399.584 1112.65 401.152C1112.08 402.72 1111.79 404.48 1111.79 406.432V418H1107.71ZM1136.07 418V392.704H1140.15V418H1136.07ZM1138.08 388.96C1137.25 388.96 1136.58 388.704 1136.07 388.192C1135.59 387.68 1135.35 387.024 1135.35 386.224C1135.35 385.424 1135.6 384.784 1136.12 384.304C1136.63 383.792 1137.28 383.536 1138.08 383.536C1138.82 383.536 1139.46 383.792 1140 384.304C1140.58 384.816 1140.87 385.456 1140.87 386.224C1140.87 387.024 1140.6 387.68 1140.05 388.192C1139.51 388.704 1138.85 388.96 1138.08 388.96ZM1146.57 418V384.064H1150.65V418H1146.57ZM1157.07 418V384.064H1161.15V418H1157.07ZM1175.68 418.288C1174.53 418.288 1173.41 418.144 1172.32 417.856C1171.26 417.536 1170.3 417.072 1169.44 416.464C1168.61 415.824 1167.94 415.04 1167.42 414.112C1166.94 413.152 1166.7 412.048 1166.7 410.8C1166.7 409.36 1166.96 408.144 1167.47 407.152C1168.02 406.16 1168.74 405.376 1169.63 404.8C1170.53 404.224 1171.57 403.808 1172.75 403.552C1173.94 403.296 1175.17 403.168 1176.45 403.168H1183.89C1183.89 401.728 1183.68 400.48 1183.26 399.424C1182.88 398.368 1182.24 397.552 1181.34 396.976C1180.45 396.368 1179.26 396.064 1177.79 396.064C1176.9 396.064 1176.06 396.16 1175.3 396.352C1174.53 396.544 1173.87 396.848 1173.33 397.264C1172.78 397.68 1172.38 398.24 1172.13 398.944H1167.76C1167.98 397.792 1168.42 396.816 1169.06 396.016C1169.73 395.184 1170.53 394.512 1171.46 394C1172.42 393.456 1173.44 393.056 1174.53 392.8C1175.62 392.544 1176.7 392.416 1177.79 392.416C1181.44 392.416 1184.03 393.488 1185.57 395.632C1187.1 397.776 1187.87 400.672 1187.87 404.32V418H1184.46L1184.22 414.784C1183.52 415.744 1182.67 416.48 1181.68 416.992C1180.69 417.504 1179.66 417.84 1178.61 418C1177.58 418.192 1176.61 418.288 1175.68 418.288ZM1176.06 414.688C1177.66 414.688 1179.04 414.432 1180.19 413.92C1181.38 413.376 1182.29 412.592 1182.93 411.568C1183.57 410.544 1183.89 409.296 1183.89 407.824V406.576H1179.42C1178.37 406.576 1177.33 406.592 1176.3 406.624C1175.28 406.656 1174.35 406.784 1173.52 407.008C1172.69 407.232 1172.02 407.616 1171.5 408.16C1171.02 408.704 1170.78 409.488 1170.78 410.512C1170.78 411.472 1171.02 412.256 1171.5 412.864C1172.02 413.472 1172.67 413.936 1173.47 414.256C1174.3 414.544 1175.17 414.688 1176.06 414.688ZM1208.09 418V384.064H1230.89V387.856H1212.27V399.28H1229.02V403.12H1212.27V414.208H1230.89V418H1208.09ZM1233.88 418L1242.91 405.088L1234.31 392.704H1239.21L1245.64 402.304L1251.88 392.704H1256.63L1248.09 405.232L1257.26 418H1252.41L1245.4 408.352L1238.49 418H1233.88ZM1271.4 418C1269.48 418 1267.93 417.712 1266.75 417.136C1265.59 416.56 1264.75 415.664 1264.2 414.448C1263.69 413.232 1263.43 411.696 1263.43 409.84V396.304H1259.31V392.704H1263.43V385.168H1267.51V392.704H1274.28V396.304H1267.51V409.408C1267.51 411.136 1267.82 412.416 1268.43 413.248C1269.07 414.048 1270.35 414.448 1272.27 414.448H1274.14V418H1271.4ZM1278.9 418V392.704H1282.83L1283.02 396.64C1283.66 395.648 1284.4 394.848 1285.23 394.24C1286.1 393.632 1287.04 393.184 1288.06 392.896C1289.12 392.576 1290.26 392.416 1291.47 392.416C1291.7 392.416 1291.9 392.416 1292.1 392.416C1292.32 392.416 1292.54 392.416 1292.77 392.416V396.256H1291.28C1289.3 396.256 1287.68 396.688 1286.43 397.552C1285.22 398.384 1284.34 399.52 1283.79 400.96C1283.25 402.368 1282.98 403.936 1282.98 405.664V418H1278.9ZM1304.91 418.288C1303.76 418.288 1302.64 418.144 1301.55 417.856C1300.5 417.536 1299.54 417.072 1298.67 416.464C1297.84 415.824 1297.17 415.04 1296.66 414.112C1296.18 413.152 1295.94 412.048 1295.94 410.8C1295.94 409.36 1296.19 408.144 1296.71 407.152C1297.25 406.16 1297.97 405.376 1298.87 404.8C1299.76 404.224 1300.8 403.808 1301.99 403.552C1303.17 403.296 1304.4 403.168 1305.68 403.168H1313.12C1313.12 401.728 1312.91 400.48 1312.5 399.424C1312.11 398.368 1311.47 397.552 1310.58 396.976C1309.68 396.368 1308.5 396.064 1307.03 396.064C1306.13 396.064 1305.3 396.16 1304.53 396.352C1303.76 396.544 1303.11 396.848 1302.56 397.264C1302.02 397.68 1301.62 398.24 1301.36 398.944H1296.99C1297.22 397.792 1297.65 396.816 1298.29 396.016C1298.96 395.184 1299.76 394.512 1300.69 394C1301.65 393.456 1302.67 393.056 1303.76 392.8C1304.85 392.544 1305.94 392.416 1307.03 392.416C1310.67 392.416 1313.27 393.488 1314.8 395.632C1316.34 397.776 1317.11 400.672 1317.11 404.32V418H1313.7L1313.46 414.784C1312.75 415.744 1311.91 416.48 1310.91 416.992C1309.92 417.504 1308.9 417.84 1307.84 418C1306.82 418.192 1305.84 418.288 1304.91 418.288ZM1305.3 414.688C1306.9 414.688 1308.27 414.432 1309.43 413.92C1310.61 413.376 1311.52 412.592 1312.16 411.568C1312.8 410.544 1313.12 409.296 1313.12 407.824V406.576H1308.66C1307.6 406.576 1306.56 406.592 1305.54 406.624C1304.51 406.656 1303.59 406.784 1302.75 407.008C1301.92 407.232 1301.25 407.616 1300.74 408.16C1300.26 408.704 1300.02 409.488 1300.02 410.512C1300.02 411.472 1300.26 412.256 1300.74 412.864C1301.25 413.472 1301.91 413.936 1302.71 414.256C1303.54 414.544 1304.4 414.688 1305.3 414.688ZM1334.23 418.288C1331.57 418.288 1329.36 417.744 1327.6 416.656C1325.87 415.536 1324.58 414 1323.71 412.048C1322.88 410.096 1322.47 407.888 1322.47 405.424C1322.47 403.024 1322.9 400.848 1323.76 398.896C1324.66 396.912 1326 395.344 1327.79 394.192C1329.62 393.008 1331.92 392.416 1334.71 392.416C1336.43 392.416 1337.97 392.704 1339.31 393.28C1340.69 393.856 1341.83 394.704 1342.72 395.824C1343.62 396.912 1344.24 398.288 1344.59 399.952H1340.42C1339.94 398.544 1339.17 397.552 1338.11 396.976C1337.09 396.368 1335.87 396.064 1334.47 396.064C1332.55 396.064 1331.01 396.512 1329.86 397.408C1328.71 398.304 1327.86 399.472 1327.31 400.912C1326.8 402.32 1326.55 403.824 1326.55 405.424C1326.55 407.088 1326.82 408.624 1327.36 410.032C1327.91 411.44 1328.75 412.576 1329.91 413.44C1331.06 414.272 1332.55 414.688 1334.37 414.688C1335.71 414.688 1336.98 414.4 1338.16 413.824C1339.38 413.248 1340.18 412.224 1340.56 410.752H1344.79C1344.47 412.48 1343.78 413.904 1342.72 415.024C1341.7 416.144 1340.43 416.976 1338.93 417.52C1337.46 418.032 1335.89 418.288 1334.23 418.288ZM1360.23 418C1358.31 418 1356.76 417.712 1355.57 417.136C1354.42 416.56 1353.57 415.664 1353.03 414.448C1352.52 413.232 1352.26 411.696 1352.26 409.84V396.304H1348.13V392.704H1352.26V385.168H1356.34V392.704H1363.11V396.304H1356.34V409.408C1356.34 411.136 1356.65 412.416 1357.25 413.248C1357.89 414.048 1359.17 414.448 1361.09 414.448H1362.97V418H1360.23Z" fill="black"/>
<g clip-path="url(#clip0_999_2407)">
<rect x="494" y="1" width="438" height="438" rx="40" fill="#F5F5F5"/>
<path d="M713 361C790.872 361 854 297.872 854 220C854 142.128 790.872 79 713 79C635.128 79 572 142.128 572 220C572 297.872 635.128 361 713 361Z" fill="black"/>
<path d="M806.229 325.781L680.321 163.6H656.6V276.354H675.577V187.7L791.329 337.257C796.546 333.768 801.524 329.934 806.229 325.781Z" fill="url(#paint6_linear_999_2407)"/>
<path d="M752.167 163.6H770.966V276.4H752.167V163.6Z" fill="url(#paint7_linear_999_2407)"/>
</g>
<path d="M639.731 419V385.064H645.059L662.771 413.336V385.064H666.947V419H661.715L643.907 390.824V419H639.731ZM685.293 419.288C682.605 419.288 680.381 418.744 678.621 417.656C676.861 416.536 675.549 415 674.685 413.048C673.821 411.096 673.389 408.872 673.389 406.376C673.389 403.848 673.837 401.624 674.733 399.704C675.661 397.752 677.005 396.216 678.765 395.096C680.525 393.976 682.685 393.416 685.245 393.416C687.229 393.416 688.925 393.8 690.333 394.568C691.773 395.304 692.957 396.296 693.885 397.544C694.813 398.792 695.485 400.168 695.901 401.672C696.317 403.144 696.493 404.632 696.429 406.136C696.397 406.424 696.365 406.712 696.333 407C696.333 407.288 696.317 407.576 696.285 407.864H677.517C677.645 409.336 678.013 410.664 678.621 411.848C679.229 413.032 680.093 413.976 681.213 414.68C682.333 415.352 683.725 415.688 685.389 415.688C686.221 415.688 687.053 415.592 687.885 415.4C688.749 415.176 689.517 414.808 690.189 414.296C690.893 413.784 691.389 413.096 691.677 412.232H695.853C695.469 413.864 694.749 415.208 693.693 416.264C692.637 417.288 691.373 418.056 689.901 418.568C688.429 419.048 686.893 419.288 685.293 419.288ZM677.613 404.312H692.253C692.221 402.872 691.901 401.608 691.293 400.52C690.685 399.432 689.853 398.584 688.797 397.976C687.773 397.368 686.541 397.064 685.101 397.064C683.533 397.064 682.205 397.4 681.117 398.072C680.061 398.744 679.245 399.624 678.669 400.712C678.093 401.8 677.741 403 677.613 404.312ZM698.852 419L707.876 406.088L699.284 393.704H704.18L710.612 403.304L716.852 393.704H721.604L713.06 406.232L722.228 419H717.38L710.372 409.352L703.46 419H698.852ZM736.371 419C734.451 419 732.899 418.712 731.715 418.136C730.563 417.56 729.715 416.664 729.171 415.448C728.659 414.232 728.403 412.696 728.403 410.84V397.304H724.275V393.704H728.403V386.168H732.483V393.704H739.251V397.304H732.483V410.408C732.483 412.136 732.787 413.416 733.395 414.248C734.035 415.048 735.315 415.448 737.235 415.448H739.107V419H736.371ZM746.744 419.384C745.912 419.384 745.224 419.112 744.68 418.568C744.136 418.024 743.864 417.336 743.864 416.504C743.864 415.672 744.136 414.984 744.68 414.44C745.224 413.896 745.912 413.624 746.744 413.624C747.576 413.624 748.264 413.896 748.808 414.44C749.352 414.984 749.624 415.672 749.624 416.504C749.624 417.336 749.352 418.024 748.808 418.568C748.264 419.112 747.576 419.384 746.744 419.384ZM751.348 427.64V424.088H753.076C754.228 424.088 755.108 423.896 755.716 423.512C756.356 423.128 756.788 422.552 757.012 421.784C757.268 421.048 757.396 420.136 757.396 419.048V393.704H761.476V419.48C761.476 421.336 761.204 422.872 760.66 424.088C760.148 425.304 759.316 426.2 758.164 426.776C757.012 427.352 755.476 427.64 753.556 427.64H751.348ZM759.412 389.96C758.58 389.96 757.908 389.704 757.396 389.192C756.916 388.68 756.676 388.024 756.676 387.224C756.676 386.424 756.932 385.784 757.444 385.304C757.956 384.792 758.612 384.536 759.412 384.536C760.148 384.536 760.788 384.792 761.332 385.304C761.908 385.816 762.196 386.456 762.196 387.224C762.196 388.024 761.924 388.68 761.38 389.192C760.836 389.704 760.18 389.96 759.412 389.96ZM777.455 419.288C776.303 419.288 775.135 419.176 773.951 418.952C772.799 418.728 771.711 418.344 770.687 417.8C769.695 417.256 768.863 416.52 768.191 415.592C767.519 414.664 767.087 413.512 766.895 412.136H771.023C771.343 413 771.855 413.704 772.559 414.248C773.295 414.76 774.111 415.128 775.007 415.352C775.935 415.576 776.815 415.688 777.647 415.688C778.159 415.688 778.751 415.656 779.423 415.592C780.095 415.528 780.735 415.384 781.343 415.16C781.983 414.904 782.495 414.536 782.879 414.056C783.295 413.576 783.503 412.904 783.503 412.04C783.503 411.4 783.359 410.872 783.071 410.456C782.783 410.04 782.383 409.704 781.871 409.448C781.359 409.16 780.735 408.952 779.999 408.824C778.495 408.504 776.879 408.2 775.151 407.912C773.455 407.624 771.951 407.08 770.639 406.28C770.191 405.992 769.775 405.672 769.391 405.32C769.039 404.936 768.735 404.52 768.479 404.072C768.223 403.592 768.015 403.08 767.855 402.536C767.727 401.96 767.663 401.336 767.663 400.664C767.663 399.416 767.903 398.344 768.383 397.448C768.895 396.52 769.599 395.768 770.495 395.192C771.391 394.584 772.415 394.136 773.567 393.848C774.751 393.56 776.015 393.416 777.359 393.416C779.023 393.416 780.511 393.688 781.823 394.232C783.167 394.744 784.271 395.512 785.135 396.536C785.999 397.528 786.511 398.76 786.671 400.232H782.879C782.655 399.304 782.047 398.552 781.055 397.976C780.063 397.368 778.799 397.064 777.263 397.064C776.751 397.064 776.175 397.112 775.535 397.208C774.895 397.272 774.287 397.432 773.711 397.688C773.135 397.912 772.655 398.264 772.271 398.744C771.887 399.192 771.695 399.8 771.695 400.568C771.695 401.272 771.871 401.864 772.223 402.344C772.607 402.824 773.135 403.208 773.807 403.496C774.479 403.784 775.247 404.024 776.111 404.216C777.231 404.44 778.463 404.68 779.807 404.936C781.151 405.16 782.207 405.4 782.975 405.656C783.999 405.976 784.847 406.424 785.519 407C786.223 407.576 786.735 408.264 787.055 409.064C787.407 409.864 787.583 410.792 787.583 411.848C787.583 413.352 787.279 414.584 786.671 415.544C786.095 416.504 785.311 417.256 784.319 417.8C783.327 418.344 782.223 418.728 781.007 418.952C779.823 419.176 778.639 419.288 777.455 419.288Z" fill="black"/>
<rect y="1" width="438" height="438" rx="40" fill="#F5F5F5"/>
<path d="M292.844 81H145.156C109.171 81 80 110.171 80 146.156V293.844C80 329.829 109.171 359 145.156 359H292.844C328.829 359 358 329.829 358 293.844V146.156C358 110.171 328.829 81 292.844 81Z" fill="#007ACC"/>
<path d="M141.476 220.922L141.388 232.307H177.571V335.122H203.166V232.307H239.349V221.142C239.349 214.964 239.218 209.802 239.041 209.669C238.908 209.494 216.889 209.404 190.192 209.449L141.608 209.582L141.476 220.922ZM304.318 209.258C311.378 211.024 316.762 214.157 321.704 219.275C324.264 222.011 328.058 226.998 328.368 228.189C328.456 228.542 316.365 236.662 309.04 241.206C308.775 241.383 307.715 240.235 306.524 238.471C302.95 233.264 299.199 231.012 293.462 230.616C285.034 230.042 279.607 234.455 279.651 241.824C279.651 243.986 279.96 245.265 280.843 247.031C282.695 250.87 286.138 253.165 296.949 257.842C316.85 266.403 325.366 272.051 330.662 280.082C336.575 289.04 337.899 303.337 333.883 313.972C329.471 325.532 318.527 333.387 303.126 335.991C298.361 336.829 287.064 336.697 281.946 335.771C270.781 333.785 260.191 328.269 253.661 321.032C251.101 318.208 246.114 310.839 246.424 310.309C246.555 310.133 247.703 309.427 248.982 308.677C250.218 307.971 254.896 305.279 259.309 302.719L267.296 298.085L268.972 300.557C271.311 304.131 276.429 309.029 279.519 310.662C288.388 315.34 300.568 314.677 306.569 309.294C309.128 306.955 310.187 304.528 310.187 300.954C310.187 297.732 309.789 296.321 308.113 293.894C305.951 290.805 301.538 288.201 289.006 282.774C274.665 276.596 268.487 272.757 262.839 266.667C259.574 263.138 256.484 257.489 255.205 252.767C254.146 248.84 253.881 239 254.719 235.028C257.675 221.173 268.134 211.509 283.225 208.64C288.124 207.714 299.508 208.067 304.318 209.258Z" fill="white"/>
<path d="M108.318 418V387.856H97.422V384.064H123.39V387.856H112.494V418H108.318ZM138.43 429.328C136.478 429.328 134.59 429.056 132.766 428.512C130.974 427.968 129.358 427.024 127.918 425.68L129.694 422.464C130.942 423.456 132.27 424.24 133.678 424.816C135.118 425.392 136.622 425.68 138.19 425.68C140.814 425.68 142.686 424.912 143.806 423.376C144.958 421.872 145.534 419.952 145.534 417.616V414.592C144.958 415.456 144.222 416.176 143.326 416.752C142.462 417.296 141.502 417.712 140.446 418C139.39 418.256 138.302 418.384 137.182 418.384C134.686 418.384 132.718 417.888 131.278 416.896C129.838 415.904 128.814 414.528 128.206 412.768C127.598 411.008 127.294 408.976 127.294 406.672V392.704H131.374V405.52C131.374 406.672 131.438 407.808 131.566 408.928C131.726 410.016 132.03 411.008 132.478 411.904C132.926 412.768 133.582 413.472 134.446 414.016C135.31 414.528 136.462 414.784 137.902 414.784C139.726 414.784 141.182 414.336 142.27 413.44C143.39 412.544 144.19 411.344 144.67 409.84C145.182 408.336 145.438 406.672 145.438 404.848V392.704H149.518V418C149.518 419.824 149.278 421.44 148.798 422.848C148.318 424.256 147.598 425.44 146.638 426.4C145.678 427.36 144.51 428.08 143.134 428.56C141.79 429.072 140.222 429.328 138.43 429.328ZM155.935 427.12V392.704H159.823L160.015 396.496C160.879 395.184 162.047 394.176 163.519 393.472C165.023 392.768 166.639 392.416 168.367 392.416C170.927 392.416 173.023 392.992 174.655 394.144C176.287 395.264 177.487 396.8 178.255 398.752C179.055 400.704 179.455 402.912 179.455 405.376C179.455 407.84 179.055 410.048 178.255 412C177.455 413.952 176.223 415.488 174.559 416.608C172.895 417.728 170.767 418.288 168.175 418.288C166.895 418.288 165.743 418.16 164.719 417.904C163.695 417.616 162.799 417.216 162.031 416.704C161.263 416.16 160.591 415.536 160.015 414.832V427.12H155.935ZM167.839 414.688C169.695 414.688 171.167 414.272 172.255 413.44C173.343 412.576 174.127 411.44 174.607 410.032C175.119 408.624 175.375 407.072 175.375 405.376C175.375 403.648 175.119 402.08 174.607 400.672C174.127 399.264 173.327 398.144 172.207 397.312C171.087 396.48 169.599 396.064 167.743 396.064C166.079 396.064 164.655 396.496 163.471 397.36C162.319 398.192 161.439 399.328 160.831 400.768C160.223 402.176 159.919 403.728 159.919 405.424C159.919 407.184 160.207 408.768 160.783 410.176C161.359 411.584 162.239 412.688 163.423 413.488C164.607 414.288 166.079 414.688 167.839 414.688ZM195.848 418.288C193.16 418.288 190.936 417.744 189.176 416.656C187.416 415.536 186.104 414 185.24 412.048C184.376 410.096 183.944 407.872 183.944 405.376C183.944 402.848 184.392 400.624 185.288 398.704C186.216 396.752 187.56 395.216 189.32 394.096C191.08 392.976 193.24 392.416 195.799 392.416C197.784 392.416 199.48 392.8 200.888 393.568C202.328 394.304 203.512 395.296 204.44 396.544C205.368 397.792 206.04 399.168 206.456 400.672C206.872 402.144 207.048 403.632 206.984 405.136C206.952 405.424 206.92 405.712 206.888 406C206.888 406.288 206.872 406.576 206.84 406.864H188.072C188.2 408.336 188.568 409.664 189.176 410.848C189.784 412.032 190.648 412.976 191.768 413.68C192.888 414.352 194.28 414.688 195.944 414.688C196.776 414.688 197.608 414.592 198.44 414.4C199.304 414.176 200.072 413.808 200.744 413.296C201.448 412.784 201.944 412.096 202.232 411.232H206.408C206.024 412.864 205.304 414.208 204.248 415.264C203.192 416.288 201.928 417.056 200.456 417.568C198.984 418.048 197.448 418.288 195.848 418.288ZM188.168 403.312H202.808C202.776 401.872 202.456 400.608 201.848 399.52C201.24 398.432 200.408 397.584 199.352 396.976C198.328 396.368 197.096 396.064 195.656 396.064C194.088 396.064 192.76 396.4 191.672 397.072C190.616 397.744 189.8 398.624 189.224 399.712C188.648 400.8 188.296 402 188.168 403.312ZM225.619 418.384C223.475 418.384 221.443 418.096 219.523 417.52C217.635 416.912 216.019 415.936 214.675 414.592C213.331 413.216 212.419 411.392 211.939 409.12H216.307C216.755 410.56 217.475 411.68 218.467 412.48C219.491 413.28 220.659 413.84 221.971 414.16C223.283 414.448 224.595 414.592 225.907 414.592C227.219 414.592 228.435 414.416 229.555 414.064C230.707 413.68 231.635 413.072 232.339 412.24C233.075 411.408 233.443 410.336 233.443 409.024C233.443 408 233.251 407.168 232.867 406.528C232.515 405.888 232.003 405.376 231.331 404.992C230.691 404.576 229.923 404.24 229.027 403.984C227.843 403.6 226.579 403.28 225.235 403.024C223.891 402.768 222.563 402.464 221.251 402.112C219.971 401.76 218.771 401.312 217.651 400.768C217.043 400.448 216.451 400.064 215.875 399.616C215.331 399.136 214.851 398.592 214.435 397.984C214.051 397.344 213.731 396.624 213.475 395.824C213.251 395.024 213.139 394.144 213.139 393.184C213.139 391.744 213.363 390.496 213.811 389.44C214.259 388.384 214.867 387.488 215.635 386.752C216.403 386.016 217.299 385.424 218.323 384.976C219.347 384.528 220.435 384.208 221.587 384.016C222.771 383.792 223.955 383.68 225.139 383.68C227.091 383.68 228.915 383.984 230.611 384.592C232.339 385.168 233.763 386.112 234.883 387.424C236.035 388.736 236.659 390.512 236.755 392.752H232.675C232.515 391.408 232.067 390.352 231.331 389.584C230.595 388.816 229.683 388.272 228.595 387.952C227.507 387.632 226.355 387.472 225.139 387.472C224.243 387.472 223.331 387.552 222.403 387.712C221.507 387.872 220.675 388.16 219.907 388.576C219.171 388.96 218.579 389.504 218.131 390.208C217.683 390.88 217.459 391.744 217.459 392.8C217.459 393.632 217.603 394.368 217.891 395.008C218.211 395.648 218.627 396.192 219.139 396.64C219.683 397.056 220.275 397.408 220.915 397.696C222.451 398.336 224.147 398.816 226.003 399.136C227.891 399.424 229.651 399.856 231.283 400.432C232.243 400.752 233.123 401.152 233.923 401.632C234.723 402.112 235.395 402.672 235.939 403.312C236.515 403.952 236.947 404.688 237.235 405.52C237.555 406.32 237.715 407.232 237.715 408.256C237.715 410.112 237.395 411.696 236.755 413.008C236.115 414.288 235.235 415.328 234.115 416.128C232.995 416.928 231.699 417.504 230.227 417.856C228.787 418.208 227.251 418.384 225.619 418.384ZM254.532 418.288C251.876 418.288 249.668 417.744 247.908 416.656C246.18 415.536 244.884 414 244.02 412.048C243.188 410.096 242.772 407.888 242.772 405.424C242.772 403.024 243.204 400.848 244.068 398.896C244.964 396.912 246.308 395.344 248.1 394.192C249.924 393.008 252.228 392.416 255.012 392.416C256.74 392.416 258.276 392.704 259.62 393.28C260.996 393.856 262.132 394.704 263.028 395.824C263.924 396.912 264.548 398.288 264.9 399.952H260.724C260.244 398.544 259.476 397.552 258.42 396.976C257.396 396.368 256.18 396.064 254.772 396.064C252.852 396.064 251.316 396.512 250.164 397.408C249.012 398.304 248.164 399.472 247.62 400.912C247.108 402.32 246.852 403.824 246.852 405.424C246.852 407.088 247.124 408.624 247.668 410.032C248.212 411.44 249.06 412.576 250.212 413.44C251.364 414.272 252.852 414.688 254.676 414.688C256.02 414.688 257.284 414.4 258.468 413.824C259.684 413.248 260.484 412.224 260.868 410.752H265.092C264.772 412.48 264.084 413.904 263.028 415.024C262.004 416.144 260.74 416.976 259.236 417.52C257.764 418.032 256.196 418.288 254.532 418.288ZM270.263 418V392.704H274.199L274.391 396.64C275.031 395.648 275.767 394.848 276.599 394.24C277.463 393.632 278.407 393.184 279.431 392.896C280.487 392.576 281.623 392.416 282.839 392.416C283.063 392.416 283.271 392.416 283.463 392.416C283.687 392.416 283.911 392.416 284.135 392.416V396.256H282.647C280.663 396.256 279.047 396.688 277.799 397.552C276.583 398.384 275.703 399.52 275.159 400.96C274.615 402.368 274.343 403.936 274.343 405.664V418H270.263ZM288.169 418V392.704H292.249V418H288.169ZM290.185 388.96C289.353 388.96 288.681 388.704 288.169 388.192C287.689 387.68 287.449 387.024 287.449 386.224C287.449 385.424 287.705 384.784 288.217 384.304C288.729 383.792 289.385 383.536 290.185 383.536C290.921 383.536 291.561 383.792 292.105 384.304C292.681 384.816 292.969 385.456 292.969 386.224C292.969 387.024 292.697 387.68 292.153 388.192C291.609 388.704 290.953 388.96 290.185 388.96ZM298.669 427.12V392.704H302.557L302.749 396.496C303.613 395.184 304.781 394.176 306.253 393.472C307.757 392.768 309.373 392.416 311.101 392.416C313.661 392.416 315.757 392.992 317.389 394.144C319.021 395.264 320.221 396.8 320.989 398.752C321.789 400.704 322.189 402.912 322.189 405.376C322.189 407.84 321.789 410.048 320.989 412C320.189 413.952 318.957 415.488 317.293 416.608C315.629 417.728 313.501 418.288 310.909 418.288C309.629 418.288 308.477 418.16 307.453 417.904C306.429 417.616 305.533 417.216 304.765 416.704C303.997 416.16 303.325 415.536 302.749 414.832V427.12H298.669ZM310.573 414.688C312.429 414.688 313.901 414.272 314.989 413.44C316.077 412.576 316.861 411.44 317.341 410.032C317.853 408.624 318.109 407.072 318.109 405.376C318.109 403.648 317.853 402.08 317.341 400.672C316.861 399.264 316.061 398.144 314.941 397.312C313.821 396.48 312.333 396.064 310.477 396.064C308.813 396.064 307.389 396.496 306.205 397.36C305.053 398.192 304.173 399.328 303.565 400.768C302.957 402.176 302.653 403.728 302.653 405.424C302.653 407.184 302.941 408.768 303.517 410.176C304.093 411.584 304.973 412.688 306.157 413.488C307.341 414.288 308.813 414.688 310.573 414.688ZM336.972 418C335.052 418 333.5 417.712 332.316 417.136C331.164 416.56 330.316 415.664 329.772 414.448C329.26 413.232 329.004 411.696 329.004 409.84V396.304H324.876V392.704H329.004V385.168H333.084V392.704H339.852V396.304H333.084V409.408C333.084 411.136 333.388 412.416 333.996 413.248C334.636 414.048 335.916 414.448 337.836 414.448H339.708V418H336.972Z" fill="black"/>
<rect x="2470" y="1" width="438" height="438" rx="40" fill="#F5F5F5"/>
<path d="M2610.03 117.382H2769.2L2815.84 166.056L2683.87 313.805L2561.14 166.056L2610.03 117.382Z" fill="#18253F"/>
<path d="M2715.86 278.907H2653.48L2625.3 244.427L2705.15 244.424L2705.15 239.533H2750.79L2715.86 278.907Z" fill="#274D82"/>
<path d="M2802.45 152.174L2630.31 251.517L2607.85 223.437L2741.12 146.526L2738.67 142.287L2774.17 121.802L2802.45 152.174ZM2710.22 117.431L2580.97 192.025L2560.86 166.942L2647.4 116.998L2710.22 117.431Z" fill="#274D82"/>
<g filter="url(#filter0_d_999_2407)">
<path d="M2775.42 102.763H2603.97L2541.34 165.054L2683.55 336.236L2694.89 323.51L2835.66 165.64L2775.42 102.763ZM2769.16 117.429L2815.69 165.996L2683.94 313.751L2561.19 165.996L2610.03 117.429H2769.16Z" fill="black"/>
</g>
<path d="M2775.42 102.763H2603.97L2541.34 165.054L2683.55 336.236L2694.89 323.51L2835.66 165.64L2775.42 102.763ZM2769.16 117.429L2815.69 165.996L2683.94 313.751L2561.19 165.996L2610.03 117.429H2769.16Z" fill="black"/>
<mask id="path-31-outside-1_999_2407" maskUnits="userSpaceOnUse" x="2646" y="383" width="84" height="37" fill="black">
<rect fill="white" x="2646" y="383" width="84" height="37"/>
<path d="M2647.53 418V414.688L2666.35 387.856H2648.16V384.064H2671.97V387.328L2652.91 414.208H2671.63V418H2647.53ZM2688.32 418.288C2685.66 418.288 2683.44 417.744 2681.65 416.656C2679.85 415.536 2678.51 414 2677.61 412.048C2676.75 410.096 2676.32 407.872 2676.32 405.376C2676.32 402.848 2676.77 400.624 2677.66 398.704C2678.56 396.752 2679.9 395.216 2681.69 394.096C2683.49 392.976 2685.73 392.416 2688.41 392.416C2691.07 392.416 2693.28 392.976 2695.04 394.096C2696.83 395.216 2698.16 396.752 2699.02 398.704C2699.92 400.624 2700.37 402.848 2700.37 405.376C2700.37 407.872 2699.92 410.096 2699.02 412.048C2698.13 414 2696.78 415.536 2694.99 416.656C2693.23 417.744 2691.01 418.288 2688.32 418.288ZM2688.32 414.688C2690.17 414.688 2691.68 414.272 2692.83 413.44C2694.01 412.608 2694.88 411.488 2695.42 410.08C2696 408.672 2696.29 407.104 2696.29 405.376C2696.29 403.648 2696 402.08 2695.42 400.672C2694.88 399.264 2694.01 398.144 2692.83 397.312C2691.68 396.48 2690.17 396.064 2688.32 396.064C2686.49 396.064 2684.99 396.48 2683.81 397.312C2682.65 398.144 2681.79 399.264 2681.21 400.672C2680.67 402.08 2680.4 403.648 2680.4 405.376C2680.4 407.104 2680.67 408.672 2681.21 410.08C2681.79 411.488 2682.65 412.608 2683.81 413.44C2684.99 414.272 2686.49 414.688 2688.32 414.688ZM2715.95 418.288C2713.43 418.288 2711.35 417.728 2709.71 416.608C2708.08 415.456 2706.87 413.92 2706.07 412C2705.27 410.048 2704.87 407.856 2704.87 405.424C2704.87 402.992 2705.27 400.8 2706.07 398.848C2706.87 396.864 2708.1 395.296 2709.76 394.144C2711.43 392.992 2713.55 392.416 2716.15 392.416C2717.14 392.416 2718.13 392.544 2719.12 392.8C2720.15 393.024 2721.11 393.392 2722 393.904C2722.9 394.384 2723.67 395.04 2724.31 395.872V384.064H2728.39V418H2724.5L2724.31 414.208C2723.73 415.168 2722.99 415.952 2722.1 416.56C2721.23 417.136 2720.27 417.568 2719.22 417.856C2718.16 418.144 2717.07 418.288 2715.95 418.288ZM2716.53 414.688C2718.23 414.688 2719.65 414.256 2720.8 413.392C2721.95 412.528 2722.83 411.376 2723.44 409.936C2724.05 408.496 2724.35 406.928 2724.35 405.232C2724.35 403.472 2724.05 401.904 2723.44 400.528C2722.87 399.152 2722 398.064 2720.85 397.264C2719.7 396.464 2718.24 396.064 2716.48 396.064C2714.66 396.064 2713.19 396.48 2712.07 397.312C2710.98 398.144 2710.18 399.28 2709.67 400.72C2709.19 402.128 2708.95 403.712 2708.95 405.472C2708.95 406.752 2709.07 407.952 2709.33 409.072C2709.62 410.16 2710.05 411.136 2710.63 412C2711.23 412.832 2712.02 413.488 2712.98 413.968C2713.94 414.448 2715.12 414.688 2716.53 414.688Z"/>
</mask>
<path d="M2647.53 418V414.688L2666.35 387.856H2648.16V384.064H2671.97V387.328L2652.91 414.208H2671.63V418H2647.53ZM2688.32 418.288C2685.66 418.288 2683.44 417.744 2681.65 416.656C2679.85 415.536 2678.51 414 2677.61 412.048C2676.75 410.096 2676.32 407.872 2676.32 405.376C2676.32 402.848 2676.77 400.624 2677.66 398.704C2678.56 396.752 2679.9 395.216 2681.69 394.096C2683.49 392.976 2685.73 392.416 2688.41 392.416C2691.07 392.416 2693.28 392.976 2695.04 394.096C2696.83 395.216 2698.16 396.752 2699.02 398.704C2699.92 400.624 2700.37 402.848 2700.37 405.376C2700.37 407.872 2699.92 410.096 2699.02 412.048C2698.13 414 2696.78 415.536 2694.99 416.656C2693.23 417.744 2691.01 418.288 2688.32 418.288ZM2688.32 414.688C2690.17 414.688 2691.68 414.272 2692.83 413.44C2694.01 412.608 2694.88 411.488 2695.42 410.08C2696 408.672 2696.29 407.104 2696.29 405.376C2696.29 403.648 2696 402.08 2695.42 400.672C2694.88 399.264 2694.01 398.144 2692.83 397.312C2691.68 396.48 2690.17 396.064 2688.32 396.064C2686.49 396.064 2684.99 396.48 2683.81 397.312C2682.65 398.144 2681.79 399.264 2681.21 400.672C2680.67 402.08 2680.4 403.648 2680.4 405.376C2680.4 407.104 2680.67 408.672 2681.21 410.08C2681.79 411.488 2682.65 412.608 2683.81 413.44C2684.99 414.272 2686.49 414.688 2688.32 414.688ZM2715.95 418.288C2713.43 418.288 2711.35 417.728 2709.71 416.608C2708.08 415.456 2706.87 413.92 2706.07 412C2705.27 410.048 2704.87 407.856 2704.87 405.424C2704.87 402.992 2705.27 400.8 2706.07 398.848C2706.87 396.864 2708.1 395.296 2709.76 394.144C2711.43 392.992 2713.55 392.416 2716.15 392.416C2717.14 392.416 2718.13 392.544 2719.12 392.8C2720.15 393.024 2721.11 393.392 2722 393.904C2722.9 394.384 2723.67 395.04 2724.31 395.872V384.064H2728.39V418H2724.5L2724.31 414.208C2723.73 415.168 2722.99 415.952 2722.1 416.56C2721.23 417.136 2720.27 417.568 2719.22 417.856C2718.16 418.144 2717.07 418.288 2715.95 418.288ZM2716.53 414.688C2718.23 414.688 2719.65 414.256 2720.8 413.392C2721.95 412.528 2722.83 411.376 2723.44 409.936C2724.05 408.496 2724.35 406.928 2724.35 405.232C2724.35 403.472 2724.05 401.904 2723.44 400.528C2722.87 399.152 2722 398.064 2720.85 397.264C2719.7 396.464 2718.24 396.064 2716.48 396.064C2714.66 396.064 2713.19 396.48 2712.07 397.312C2710.98 398.144 2710.18 399.28 2709.67 400.72C2709.19 402.128 2708.95 403.712 2708.95 405.472C2708.95 406.752 2709.07 407.952 2709.33 409.072C2709.62 410.16 2710.05 411.136 2710.63 412C2711.23 412.832 2712.02 413.488 2712.98 413.968C2713.94 414.448 2715.12 414.688 2716.53 414.688Z" fill="black"/>
<path d="M2647.53 418H2646.53V419H2647.53V418ZM2647.53 414.688L2646.72 414.114L2646.53 414.372V414.688H2647.53ZM2666.35 387.856L2667.17 388.43L2668.27 386.856H2666.35V387.856ZM2648.16 387.856H2647.16V388.856H2648.16V387.856ZM2648.16 384.064V383.064H2647.16V384.064H2648.16ZM2671.97 384.064H2672.97V383.064H2671.97V384.064ZM2671.97 387.328L2672.78 387.906L2672.97 387.647V387.328H2671.97ZM2652.91 414.208L2652.09 413.63L2650.98 415.208H2652.91V414.208ZM2671.63 414.208H2672.63V413.208H2671.63V414.208ZM2671.63 418V419H2672.63V418H2671.63ZM2648.53 418V414.688H2646.53V418H2648.53ZM2648.35 415.262L2667.17 388.43L2665.53 387.282L2646.72 414.114L2648.35 415.262ZM2666.35 386.856H2648.16V388.856H2666.35V386.856ZM2649.16 387.856V384.064H2647.16V387.856H2649.16ZM2648.16 385.064H2671.97V383.064H2648.16V385.064ZM2670.97 384.064V387.328H2672.97V384.064H2670.97ZM2671.15 386.75L2652.09 413.63L2653.73 414.786L2672.78 387.906L2671.15 386.75ZM2652.91 415.208H2671.63V413.208H2652.91V415.208ZM2670.63 414.208V418H2672.63V414.208H2670.63ZM2671.63 417H2647.53V419H2671.63V417ZM2681.65 416.656L2681.12 417.504L2681.13 417.511L2681.65 416.656ZM2677.61 412.048L2676.7 412.453L2676.71 412.465L2677.61 412.048ZM2677.66 398.704L2678.57 399.127L2678.57 399.121L2677.66 398.704ZM2681.69 394.096L2682.22 394.944L2682.22 394.944L2681.69 394.096ZM2695.04 394.096L2694.5 394.94L2694.51 394.944L2695.04 394.096ZM2699.02 398.704L2698.11 399.109L2698.11 399.118L2698.12 399.127L2699.02 398.704ZM2699.02 412.048L2699.93 412.465L2699.93 412.465L2699.02 412.048ZM2694.99 416.656L2695.52 417.507L2695.52 417.504L2694.99 416.656ZM2692.83 413.44L2692.26 412.622L2692.25 412.629L2692.83 413.44ZM2695.42 410.08L2694.5 409.701L2694.49 409.71L2694.49 409.72L2695.42 410.08ZM2695.42 400.672L2694.49 401.032L2694.49 401.042L2694.5 401.051L2695.42 400.672ZM2692.83 397.312L2692.24 398.123L2692.26 398.13L2692.83 397.312ZM2683.81 397.312L2683.23 396.494L2683.22 396.501L2683.81 397.312ZM2681.21 400.672L2680.29 400.293L2680.29 400.302L2680.28 400.312L2681.21 400.672ZM2681.21 410.08L2680.28 410.44L2680.29 410.45L2680.29 410.459L2681.21 410.08ZM2683.81 413.44L2683.22 414.251L2683.23 414.258L2683.81 413.44ZM2688.32 417.288C2685.8 417.288 2683.76 416.772 2682.17 415.801L2681.13 417.511C2683.11 418.716 2685.53 419.288 2688.32 419.288V417.288ZM2682.18 415.808C2680.55 414.793 2679.34 413.408 2678.52 411.631L2676.71 412.465C2677.68 414.592 2679.16 416.279 2681.12 417.504L2682.18 415.808ZM2678.53 411.643C2677.73 409.838 2677.32 407.756 2677.32 405.376H2675.32C2675.32 407.988 2675.77 410.354 2676.7 412.453L2678.53 411.643ZM2677.32 405.376C2677.32 402.966 2677.75 400.891 2678.57 399.127L2676.76 398.281C2675.79 400.357 2675.32 402.73 2675.32 405.376H2677.32ZM2678.57 399.121C2679.39 397.344 2680.6 395.959 2682.22 394.944L2681.16 393.248C2679.2 394.473 2677.73 396.16 2676.75 398.287L2678.57 399.121ZM2682.22 394.944C2683.82 393.947 2685.86 393.416 2688.41 393.416V391.416C2685.59 391.416 2683.15 392.005 2681.16 393.248L2682.22 394.944ZM2688.41 393.416C2690.93 393.416 2692.94 393.946 2694.5 394.94L2695.58 393.252C2693.62 392.006 2691.21 391.416 2688.41 391.416V393.416ZM2694.51 394.944C2696.13 395.957 2697.32 397.338 2698.11 399.109L2699.94 398.299C2698.99 396.166 2697.53 394.475 2695.57 393.248L2694.51 394.944ZM2698.12 399.127C2698.94 400.891 2699.37 402.966 2699.37 405.376H2701.37C2701.37 402.73 2700.9 400.357 2699.93 398.281L2698.12 399.127ZM2699.37 405.376C2699.37 407.751 2698.94 409.829 2698.11 411.631L2699.93 412.465C2700.9 410.363 2701.37 407.993 2701.37 405.376H2699.37ZM2698.11 411.631C2697.3 413.408 2696.08 414.793 2694.46 415.808L2695.52 417.504C2697.48 416.279 2698.96 414.592 2699.93 412.465L2698.11 411.631ZM2694.46 415.805C2692.9 416.771 2690.88 417.288 2688.32 417.288V419.288C2691.14 419.288 2693.56 418.717 2695.52 417.507L2694.46 415.805ZM2688.32 415.688C2690.32 415.688 2692.05 415.239 2693.42 414.251L2692.25 412.629C2691.31 413.305 2690.03 413.688 2688.32 413.688V415.688ZM2693.41 414.258C2694.76 413.307 2695.74 412.025 2696.36 410.44L2694.49 409.72C2694.01 410.951 2693.27 411.909 2692.26 412.622L2693.41 414.258ZM2696.35 410.459C2696.98 408.915 2697.29 407.216 2697.29 405.376H2695.29C2695.29 406.992 2695.02 408.429 2694.5 409.701L2696.35 410.459ZM2697.29 405.376C2697.29 403.536 2696.98 401.837 2696.35 400.293L2694.5 401.051C2695.02 402.323 2695.29 403.76 2695.29 405.376H2697.29ZM2696.36 400.312C2695.74 398.727 2694.76 397.445 2693.41 396.494L2692.26 398.13C2693.27 398.843 2694.01 399.801 2694.49 401.032L2696.36 400.312ZM2693.42 396.501C2692.05 395.513 2690.32 395.064 2688.32 395.064V397.064C2690.03 397.064 2691.31 397.447 2692.25 398.123L2693.42 396.501ZM2688.32 395.064C2686.34 395.064 2684.62 395.516 2683.23 396.494L2684.38 398.13C2685.36 397.444 2686.65 397.064 2688.32 397.064V395.064ZM2683.22 396.501C2681.91 397.451 2680.93 398.725 2680.29 400.293L2682.14 401.051C2682.65 399.803 2683.4 398.837 2684.39 398.123L2683.22 396.501ZM2680.28 400.312C2679.69 401.85 2679.4 403.542 2679.4 405.376H2681.4C2681.4 403.754 2681.65 402.31 2682.15 401.032L2680.28 400.312ZM2679.4 405.376C2679.4 407.21 2679.69 408.902 2680.28 410.44L2682.15 409.72C2681.65 408.442 2681.4 406.998 2681.4 405.376H2679.4ZM2680.29 410.459C2680.93 412.027 2681.91 413.301 2683.22 414.251L2684.39 412.629C2683.4 411.915 2682.65 410.949 2682.14 409.701L2680.29 410.459ZM2683.23 414.258C2684.62 415.236 2686.34 415.688 2688.32 415.688V413.688C2686.65 413.688 2685.36 413.308 2684.38 412.622L2683.23 414.258ZM2709.71 416.608L2709.14 417.425L2709.15 417.433L2709.71 416.608ZM2706.07 412L2705.14 412.379L2705.14 412.385L2706.07 412ZM2706.07 398.848L2706.99 399.227L2706.99 399.222L2706.07 398.848ZM2709.76 394.144L2710.33 394.966L2710.33 394.966L2709.76 394.144ZM2719.12 392.8L2718.87 393.768L2718.89 393.773L2718.91 393.777L2719.12 392.8ZM2722 393.904L2721.51 394.772L2721.52 394.779L2721.53 394.785L2722 393.904ZM2724.31 395.872L2723.51 396.482L2725.31 398.812V395.872H2724.31ZM2724.31 384.064V383.064H2723.31V384.064H2724.31ZM2728.39 384.064H2729.39V383.064H2728.39V384.064ZM2728.39 418V419H2729.39V418H2728.39ZM2724.5 418L2723.5 418.051L2723.55 419H2724.5V418ZM2724.31 414.208L2725.3 414.157L2725.14 410.877L2723.45 413.694L2724.31 414.208ZM2722.1 416.56L2722.65 417.392L2722.66 417.387L2722.1 416.56ZM2720.8 413.392L2720.2 412.592L2720.2 412.592L2720.8 413.392ZM2723.44 409.936L2722.52 409.547L2722.52 409.547L2723.44 409.936ZM2723.44 400.528L2722.52 400.914L2722.52 400.923L2722.53 400.932L2723.44 400.528ZM2720.85 397.264L2721.42 396.443L2721.42 396.443L2720.85 397.264ZM2712.07 397.312L2711.47 396.509L2711.46 396.518L2712.07 397.312ZM2709.67 400.72L2708.72 400.385L2708.72 400.397L2709.67 400.72ZM2709.33 409.072L2708.35 409.295L2708.36 409.311L2708.36 409.328L2709.33 409.072ZM2710.63 412L2709.79 412.555L2709.81 412.573L2709.82 412.59L2710.63 412ZM2715.95 417.288C2713.57 417.288 2711.7 416.761 2710.28 415.783L2709.15 417.433C2710.99 418.695 2713.28 419.288 2715.95 419.288V417.288ZM2710.29 415.791C2708.82 414.752 2707.72 413.369 2706.99 411.615L2705.14 412.385C2706.01 414.471 2707.34 416.16 2709.14 417.425L2710.29 415.791ZM2706.99 411.621C2706.25 409.806 2705.87 407.746 2705.87 405.424H2703.87C2703.87 407.966 2704.28 410.29 2705.14 412.379L2706.99 411.621ZM2705.87 405.424C2705.87 403.102 2706.25 401.042 2706.99 399.227L2705.14 398.469C2704.28 400.558 2703.87 402.882 2703.87 405.424H2705.87ZM2706.99 399.222C2707.72 397.408 2708.84 396.001 2710.33 394.966L2709.19 393.322C2707.36 394.591 2706.01 396.32 2705.14 398.474L2706.99 399.222ZM2710.33 394.966C2711.79 393.959 2713.7 393.416 2716.15 393.416V391.416C2713.41 391.416 2711.06 392.025 2709.19 393.322L2710.33 394.966ZM2716.15 393.416C2717.05 393.416 2717.96 393.533 2718.87 393.768L2719.37 391.832C2718.3 391.555 2717.22 391.416 2716.15 391.416V393.416ZM2718.91 393.777C2719.83 393.98 2720.7 394.311 2721.51 394.772L2722.5 393.036C2721.51 392.473 2720.46 392.068 2719.34 391.823L2718.91 393.777ZM2721.53 394.785C2722.3 395.196 2722.96 395.758 2723.51 396.482L2725.1 395.262C2724.37 394.322 2723.5 393.572 2722.47 393.023L2721.53 394.785ZM2725.31 395.872V384.064H2723.31V395.872H2725.31ZM2724.31 385.064H2728.39V383.064H2724.31V385.064ZM2727.39 384.064V418H2729.39V384.064H2727.39ZM2728.39 417H2724.5V419H2728.39V417ZM2725.5 417.949L2725.3 414.157L2723.31 414.259L2723.5 418.051L2725.5 417.949ZM2723.45 413.694C2722.94 414.533 2722.31 415.209 2721.54 415.733L2722.66 417.387C2723.68 416.695 2724.51 415.803 2725.16 414.722L2723.45 413.694ZM2721.54 415.728C2720.77 416.241 2719.91 416.63 2718.95 416.891L2719.48 418.821C2720.63 418.506 2721.69 418.031 2722.65 417.392L2721.54 415.728ZM2718.95 416.891C2717.99 417.155 2716.99 417.288 2715.95 417.288V419.288C2717.16 419.288 2718.34 419.133 2719.48 418.821L2718.95 416.891ZM2716.53 415.688C2718.4 415.688 2720.05 415.208 2721.4 414.192L2720.2 412.592C2719.25 413.304 2718.05 413.688 2716.53 413.688V415.688ZM2721.4 414.192C2722.71 413.213 2723.69 411.914 2724.36 410.325L2722.52 409.547C2721.97 410.838 2721.2 411.843 2720.2 412.592L2721.4 414.192ZM2724.36 410.325C2725.03 408.752 2725.35 407.05 2725.35 405.232H2723.35C2723.35 406.806 2723.07 408.24 2722.52 409.547L2724.36 410.325ZM2725.35 405.232C2725.35 403.356 2725.03 401.647 2724.36 400.124L2722.53 400.932C2723.07 402.161 2723.35 403.588 2723.35 405.232H2725.35ZM2724.36 400.142C2723.72 398.602 2722.74 397.358 2721.42 396.443L2720.28 398.085C2721.26 398.77 2722.01 399.702 2722.52 400.914L2724.36 400.142ZM2721.42 396.443C2720.06 395.5 2718.39 395.064 2716.48 395.064V397.064C2718.09 397.064 2719.33 397.428 2720.28 398.085L2721.42 396.443ZM2716.48 395.064C2714.51 395.064 2712.81 395.515 2711.47 396.509L2712.66 398.115C2713.56 397.445 2714.81 397.064 2716.48 397.064V395.064ZM2711.46 396.518C2710.2 397.48 2709.29 398.785 2708.72 400.385L2710.61 401.055C2711.06 399.775 2711.76 398.808 2712.67 398.106L2711.46 396.518ZM2708.72 400.397C2708.2 401.926 2707.95 403.622 2707.95 405.472H2709.95C2709.95 403.802 2710.17 402.33 2710.61 401.043L2708.72 400.397ZM2707.95 405.472C2707.95 406.819 2708.08 408.094 2708.35 409.295L2710.3 408.849C2710.07 407.81 2709.95 406.685 2709.95 405.472H2707.95ZM2708.36 409.328C2708.68 410.513 2709.15 411.592 2709.79 412.555L2711.46 411.445C2710.95 410.68 2710.56 409.807 2710.3 408.816L2708.36 409.328ZM2709.82 412.59C2710.52 413.556 2711.43 414.314 2712.53 414.862L2713.42 413.074C2712.6 412.662 2711.94 412.108 2711.43 411.41L2709.82 412.59ZM2712.53 414.862C2713.67 415.43 2715.01 415.688 2716.53 415.688V413.688C2715.23 413.688 2714.21 413.466 2713.42 413.074L2712.53 414.862Z" fill="#888888" mask="url(#path-31-outside-1_999_2407)"/>
<rect x="1976" y="1" width="438" height="438" rx="40" fill="#F5F5F5"/>
<path d="M2181.41 278.995H2126.25C2125.82 278.969 2125.4 279.032 2125 279.177C2124.6 279.323 2124.23 279.55 2123.92 279.843C2123.61 280.136 2123.36 280.49 2123.19 280.883C2123.02 281.276 2122.93 281.699 2122.93 282.127C2122.93 282.554 2123.02 282.978 2123.19 283.37C2123.36 283.763 2123.61 284.117 2123.92 284.41C2124.23 284.703 2124.6 284.93 2125 285.076C2125.4 285.222 2125.82 285.284 2126.25 285.258H2181.42C2181.84 285.284 2182.27 285.222 2182.67 285.076C2183.07 284.93 2183.44 284.703 2183.75 284.41C2184.06 284.117 2184.31 283.763 2184.48 283.37C2184.65 282.978 2184.74 282.554 2184.74 282.127C2184.74 281.699 2184.65 281.276 2184.48 280.883C2184.31 280.49 2184.06 280.136 2183.75 279.843C2183.44 279.55 2183.07 279.323 2182.67 279.177C2182.27 279.032 2181.84 278.969 2181.42 278.995M2262.67 278.995H2207.52C2207.09 278.969 2206.66 279.032 2206.26 279.177C2205.86 279.323 2205.49 279.55 2205.18 279.843C2204.87 280.136 2204.62 280.49 2204.46 280.883C2204.29 281.276 2204.2 281.699 2204.2 282.127C2204.2 282.554 2204.29 282.978 2204.46 283.37C2204.62 283.763 2204.87 284.117 2205.18 284.41C2205.49 284.703 2205.86 284.93 2206.26 285.076C2206.66 285.222 2207.09 285.284 2207.52 285.258H2262.67C2263.47 285.211 2264.22 284.86 2264.76 284.278C2265.31 283.696 2265.62 282.926 2265.62 282.127C2265.62 281.327 2265.31 280.557 2264.76 279.975C2264.22 279.393 2263.47 279.042 2262.67 278.995ZM2181.26 206.959H2126.26C2125.84 206.934 2125.41 206.996 2125.01 207.142C2124.61 207.287 2124.24 207.514 2123.93 207.807C2123.62 208.101 2123.37 208.454 2123.2 208.847C2123.03 209.24 2122.95 209.663 2122.95 210.091C2122.95 210.518 2123.03 210.942 2123.2 211.334C2123.37 211.727 2123.62 212.081 2123.93 212.374C2124.24 212.668 2124.61 212.894 2125.01 213.04C2125.41 213.186 2125.84 213.248 2126.26 213.222H2181.25C2181.68 213.248 2182.11 213.186 2182.51 213.04C2182.91 212.894 2183.27 212.668 2183.59 212.374C2183.9 212.081 2184.14 211.727 2184.31 211.334C2184.48 210.942 2184.57 210.518 2184.57 210.091C2184.57 209.663 2184.48 209.24 2184.31 208.847C2184.14 208.454 2183.9 208.101 2183.59 207.807C2183.27 207.514 2182.91 207.287 2182.51 207.142C2182.11 206.996 2181.68 206.934 2181.25 206.959M2262.51 206.959H2207.5C2207.08 206.934 2206.65 206.996 2206.25 207.142C2205.85 207.287 2205.48 207.514 2205.17 207.807C2204.86 208.101 2204.61 208.454 2204.44 208.847C2204.28 209.24 2204.19 209.663 2204.19 210.091C2204.19 210.518 2204.28 210.942 2204.44 211.334C2204.61 211.727 2204.86 212.081 2205.17 212.374C2205.48 212.668 2205.85 212.894 2206.25 213.04C2206.65 213.186 2207.08 213.248 2207.5 213.222H2262.51C2263.3 213.175 2264.05 212.824 2264.6 212.242C2265.15 211.66 2265.45 210.89 2265.45 210.091C2265.45 209.291 2265.15 208.521 2264.6 207.939C2264.05 207.357 2263.3 207.007 2262.51 206.959ZM2268.63 104.607H2220.45C2218.73 99.205 2215.34 94.4915 2210.77 91.1469C2206.2 87.8024 2200.69 86 2195.03 86C2189.37 86 2183.86 87.8024 2179.29 91.1469C2174.72 94.4915 2171.33 99.205 2169.61 104.607H2121.37C2112.25 104.61 2103.51 108.24 2097.07 114.698C2090.62 121.157 2087 129.916 2087 139.051V318.545C2087 327.683 2090.62 336.447 2097.07 342.908C2103.52 349.37 2112.26 353 2121.38 353H2268.63C2277.75 352.997 2286.49 349.366 2292.93 342.904C2299.38 336.443 2303 327.681 2303 318.545V139.062C2303 129.928 2299.38 121.168 2292.93 114.71C2286.49 108.251 2277.75 104.621 2268.63 104.618M2172.01 110.881C2172.73 110.899 2173.44 110.661 2174.01 110.207C2174.58 109.754 2174.98 109.115 2175.12 108.4C2176.12 103.831 2178.64 99.7385 2182.27 96.8038C2185.9 93.8692 2190.43 92.2689 2195.09 92.2689C2199.76 92.2689 2204.29 93.8692 2207.92 96.8038C2211.55 99.7385 2214.07 103.831 2215.06 108.4C2215.21 109.116 2215.61 109.757 2216.18 110.211C2216.75 110.665 2217.46 110.902 2218.19 110.881H2235V131.385C2235 133.875 2234.01 136.261 2232.25 138.022C2230.5 139.782 2228.11 140.772 2225.63 140.775H2164.54C2162.05 140.772 2159.67 139.782 2157.91 138.022C2156.16 136.261 2155.17 133.875 2155.17 131.385V110.87L2172.01 110.881ZM2296.75 318.556C2296.75 334.132 2284.16 346.748 2268.63 346.748H2121.38C2113.92 346.745 2106.77 343.773 2101.5 338.487C2096.22 333.2 2093.26 326.031 2093.26 318.556V139.062C2093.26 131.588 2096.22 124.42 2101.5 119.135C2106.77 113.85 2113.92 110.881 2121.38 110.881H2148.91V131.385C2148.91 140.03 2155.9 147.038 2164.54 147.038H2225.48C2234.1 147.038 2241.09 140.03 2241.09 131.385V110.87H2268.62C2284.16 110.87 2296.75 123.486 2296.75 139.051V318.556Z" fill="#FF2D76"/>
<path d="M2014.18 419V385.064H2026.9C2028.79 385.064 2030.47 385.256 2031.94 385.64C2033.45 386.024 2034.73 386.632 2035.78 387.464C2036.84 388.296 2037.64 389.4 2038.18 390.776C2038.76 392.12 2039.05 393.752 2039.05 395.672C2039.05 397.56 2038.7 399.176 2037.99 400.52C2037.29 401.832 2036.36 402.904 2035.21 403.736C2034.06 404.568 2032.81 405.176 2031.46 405.56L2038.57 419H2034.01L2027.24 406.28H2018.36V419H2014.18ZM2018.36 402.488H2025.56C2026.81 402.488 2027.98 402.392 2029.06 402.2C2030.18 402.008 2031.16 401.672 2031.99 401.192C2032.86 400.68 2033.53 399.976 2034.01 399.08C2034.49 398.152 2034.74 396.968 2034.78 395.528C2034.81 393.896 2034.5 392.6 2033.86 391.64C2033.22 390.648 2032.28 389.944 2031.03 389.528C2029.78 389.08 2028.26 388.856 2026.47 388.856H2018.36V402.488ZM2055.29 419.288C2052.6 419.288 2050.38 418.744 2048.62 417.656C2046.86 416.536 2045.55 415 2044.68 413.048C2043.82 411.096 2043.39 408.872 2043.39 406.376C2043.39 403.848 2043.84 401.624 2044.73 399.704C2045.66 397.752 2047 396.216 2048.76 395.096C2050.52 393.976 2052.68 393.416 2055.24 393.416C2057.23 393.416 2058.92 393.8 2060.33 394.568C2061.77 395.304 2062.96 396.296 2063.88 397.544C2064.81 398.792 2065.48 400.168 2065.9 401.672C2066.32 403.144 2066.49 404.632 2066.43 406.136C2066.4 406.424 2066.36 406.712 2066.33 407C2066.33 407.288 2066.32 407.576 2066.28 407.864H2047.52C2047.64 409.336 2048.01 410.664 2048.62 411.848C2049.23 413.032 2050.09 413.976 2051.21 414.68C2052.33 415.352 2053.72 415.688 2055.39 415.688C2056.22 415.688 2057.05 415.592 2057.88 415.4C2058.75 415.176 2059.52 414.808 2060.19 414.296C2060.89 413.784 2061.39 413.096 2061.68 412.232H2065.85C2065.47 413.864 2064.75 415.208 2063.69 416.264C2062.64 417.288 2061.37 418.056 2059.9 418.568C2058.43 419.048 2056.89 419.288 2055.29 419.288ZM2047.61 404.312H2062.25C2062.22 402.872 2061.9 401.608 2061.29 400.52C2060.68 399.432 2059.85 398.584 2058.8 397.976C2057.77 397.368 2056.54 397.064 2055.1 397.064C2053.53 397.064 2052.2 397.4 2051.12 398.072C2050.06 398.744 2049.24 399.624 2048.67 400.712C2048.09 401.8 2047.74 403 2047.61 404.312ZM2079.98 419.288C2078.82 419.288 2077.7 419.144 2076.62 418.856C2075.56 418.536 2074.6 418.072 2073.74 417.464C2072.9 416.824 2072.23 416.04 2071.72 415.112C2071.24 414.152 2071 413.048 2071 411.8C2071 410.36 2071.26 409.144 2071.77 408.152C2072.31 407.16 2073.03 406.376 2073.93 405.8C2074.82 405.224 2075.86 404.808 2077.05 404.552C2078.23 404.296 2079.46 404.168 2080.74 404.168H2088.18C2088.18 402.728 2087.98 401.48 2087.56 400.424C2087.18 399.368 2086.54 398.552 2085.64 397.976C2084.74 397.368 2083.56 397.064 2082.09 397.064C2081.19 397.064 2080.36 397.16 2079.59 397.352C2078.82 397.544 2078.17 397.848 2077.62 398.264C2077.08 398.68 2076.68 399.24 2076.42 399.944H2072.06C2072.28 398.792 2072.71 397.816 2073.35 397.016C2074.02 396.184 2074.82 395.512 2075.75 395C2076.71 394.456 2077.74 394.056 2078.82 393.8C2079.91 393.544 2081 393.416 2082.09 393.416C2085.74 393.416 2088.33 394.488 2089.86 396.632C2091.4 398.776 2092.17 401.672 2092.17 405.32V419H2088.76L2088.52 415.784C2087.82 416.744 2086.97 417.48 2085.98 417.992C2084.98 418.504 2083.96 418.84 2082.9 419C2081.88 419.192 2080.9 419.288 2079.98 419.288ZM2080.36 415.688C2081.96 415.688 2083.34 415.432 2084.49 414.92C2085.67 414.376 2086.58 413.592 2087.22 412.568C2087.86 411.544 2088.18 410.296 2088.18 408.824V407.576H2083.72C2082.66 407.576 2081.62 407.592 2080.6 407.624C2079.58 407.656 2078.65 407.784 2077.82 408.008C2076.98 408.232 2076.31 408.616 2075.8 409.16C2075.32 409.704 2075.08 410.488 2075.08 411.512C2075.08 412.472 2075.32 413.256 2075.8 413.864C2076.31 414.472 2076.97 414.936 2077.77 415.256C2078.6 415.544 2079.46 415.688 2080.36 415.688ZM2109.29 419.288C2106.63 419.288 2104.43 418.744 2102.67 417.656C2100.94 416.536 2099.64 415 2098.78 413.048C2097.95 411.096 2097.53 408.888 2097.53 406.424C2097.53 404.024 2097.96 401.848 2098.83 399.896C2099.72 397.912 2101.07 396.344 2102.86 395.192C2104.68 394.008 2106.99 393.416 2109.77 393.416C2111.5 393.416 2113.03 393.704 2114.38 394.28C2115.75 394.856 2116.89 395.704 2117.79 396.824C2118.68 397.912 2119.31 399.288 2119.66 400.952H2115.48C2115 399.544 2114.23 398.552 2113.18 397.976C2112.15 397.368 2110.94 397.064 2109.53 397.064C2107.61 397.064 2106.07 397.512 2104.92 398.408C2103.77 399.304 2102.92 400.472 2102.38 401.912C2101.87 403.32 2101.61 404.824 2101.61 406.424C2101.61 408.088 2101.88 409.624 2102.43 411.032C2102.97 412.44 2103.82 413.576 2104.97 414.44C2106.12 415.272 2107.61 415.688 2109.43 415.688C2110.78 415.688 2112.04 415.4 2113.23 414.824C2114.44 414.248 2115.24 413.224 2115.63 411.752H2119.85C2119.53 413.48 2118.84 414.904 2117.79 416.024C2116.76 417.144 2115.5 417.976 2113.99 418.52C2112.52 419.032 2110.95 419.288 2109.29 419.288ZM2134.52 419.288C2131.87 419.288 2130 418.568 2128.91 417.128C2127.85 415.688 2127.32 413.64 2127.32 410.984V397.304H2123.2V393.704H2127.32V386.12H2131.4V393.704H2139.18V397.304H2131.4V410.456C2131.4 411.416 2131.48 412.296 2131.64 413.096C2131.8 413.864 2132.14 414.488 2132.65 414.968C2133.16 415.416 2133.93 415.656 2134.96 415.688C2135.69 415.688 2136.33 415.56 2136.88 415.304C2137.45 415.048 2137.93 414.744 2138.32 414.392L2140.09 417.368C2139.55 417.816 2138.97 418.184 2138.36 418.472C2137.79 418.76 2137.18 418.968 2136.54 419.096C2135.93 419.224 2135.26 419.288 2134.52 419.288ZM2156.99 419V385.064H2161.07V397.592C2161.68 396.696 2162.41 395.944 2163.28 395.336C2164.17 394.696 2165.15 394.216 2166.21 393.896C2167.26 393.576 2168.35 393.416 2169.47 393.416C2171.93 393.416 2173.85 393.928 2175.23 394.952C2176.64 395.976 2177.63 397.368 2178.21 399.128C2178.78 400.856 2179.07 402.84 2179.07 405.08V419H2174.99V406.328C2174.99 405.208 2174.91 404.104 2174.75 403.016C2174.62 401.896 2174.35 400.888 2173.93 399.992C2173.52 399.096 2172.88 398.376 2172.01 397.832C2171.18 397.288 2170.05 397.016 2168.61 397.016C2167.23 397.016 2166.05 397.32 2165.05 397.928C2164.09 398.536 2163.33 399.352 2162.75 400.376C2162.17 401.368 2161.74 402.472 2161.45 403.688C2161.2 404.872 2161.07 406.04 2161.07 407.192V419H2156.99ZM2196.39 419.288C2193.73 419.288 2191.51 418.744 2189.72 417.656C2187.92 416.536 2186.58 415 2185.68 413.048C2184.82 411.096 2184.39 408.872 2184.39 406.376C2184.39 403.848 2184.84 401.624 2185.73 399.704C2186.63 397.752 2187.97 396.216 2189.76 395.096C2191.56 393.976 2193.8 393.416 2196.48 393.416C2199.14 393.416 2201.35 393.976 2203.11 395.096C2204.9 396.216 2206.23 397.752 2207.09 399.704C2207.99 401.624 2208.44 403.848 2208.44 406.376C2208.44 408.872 2207.99 411.096 2207.09 413.048C2206.2 415 2204.85 416.536 2203.06 417.656C2201.3 418.744 2199.08 419.288 2196.39 419.288ZM2196.39 415.688C2198.24 415.688 2199.75 415.272 2200.9 414.44C2202.08 413.608 2202.95 412.488 2203.49 411.08C2204.07 409.672 2204.36 408.104 2204.36 406.376C2204.36 404.648 2204.07 403.08 2203.49 401.672C2202.95 400.264 2202.08 399.144 2200.9 398.312C2199.75 397.48 2198.24 397.064 2196.39 397.064C2194.56 397.064 2193.06 397.48 2191.88 398.312C2190.72 399.144 2189.86 400.264 2189.28 401.672C2188.74 403.08 2188.47 404.648 2188.47 406.376C2188.47 408.104 2188.74 409.672 2189.28 411.08C2189.86 412.488 2190.72 413.608 2191.88 414.44C2193.06 415.272 2194.56 415.688 2196.39 415.688ZM2224.94 419.288C2222.28 419.288 2220.06 418.744 2218.26 417.656C2216.47 416.536 2215.13 415 2214.23 413.048C2213.37 411.096 2212.94 408.872 2212.94 406.376C2212.94 403.848 2213.38 401.624 2214.28 399.704C2215.18 397.752 2216.52 396.216 2218.31 395.096C2220.1 393.976 2222.34 393.416 2225.03 393.416C2227.69 393.416 2229.9 393.976 2231.66 395.096C2233.45 396.216 2234.78 397.752 2235.64 399.704C2236.54 401.624 2236.98 403.848 2236.98 406.376C2236.98 408.872 2236.54 411.096 2235.64 413.048C2234.74 415 2233.4 416.536 2231.61 417.656C2229.85 418.744 2227.62 419.288 2224.94 419.288ZM2224.94 415.688C2226.79 415.688 2228.3 415.272 2229.45 414.44C2230.63 413.608 2231.5 412.488 2232.04 411.08C2232.62 409.672 2232.9 408.104 2232.9 406.376C2232.9 404.648 2232.62 403.08 2232.04 401.672C2231.5 400.264 2230.63 399.144 2229.45 398.312C2228.3 397.48 2226.79 397.064 2224.94 397.064C2223.11 397.064 2221.61 397.48 2220.42 398.312C2219.27 399.144 2218.41 400.264 2217.83 401.672C2217.29 403.08 2217.02 404.648 2217.02 406.376C2217.02 408.104 2217.29 409.672 2217.83 411.08C2218.41 412.488 2219.27 413.608 2220.42 414.44C2221.61 415.272 2223.11 415.688 2224.94 415.688ZM2242.44 419V385.064H2246.52V404.6H2250.94L2258.52 393.704H2263.13L2254.68 405.752L2263.85 419H2259.05L2251.42 408.152H2246.52V419H2242.44ZM2282.77 419V397.304H2278.64V393.704H2282.77V391.016C2282.77 389.128 2283.02 387.592 2283.53 386.408C2284.08 385.192 2284.93 384.296 2286.08 383.72C2287.26 383.144 2288.81 382.856 2290.73 382.856H2293.61V386.456H2291.17C2290.01 386.456 2289.12 386.648 2288.48 387.032C2287.87 387.416 2287.44 387.992 2287.18 388.76C2286.96 389.496 2286.85 390.408 2286.85 391.496V393.704H2293.61V397.304H2286.85V419H2282.77ZM2308.47 419.288C2305.81 419.288 2303.59 418.744 2301.79 417.656C2300 416.536 2298.66 415 2297.76 413.048C2296.9 411.096 2296.47 408.872 2296.47 406.376C2296.47 403.848 2296.91 401.624 2297.81 399.704C2298.71 397.752 2300.05 396.216 2301.84 395.096C2303.63 393.976 2305.87 393.416 2308.56 393.416C2311.22 393.416 2313.43 393.976 2315.19 395.096C2316.98 396.216 2318.31 397.752 2319.17 399.704C2320.07 401.624 2320.51 403.848 2320.51 406.376C2320.51 408.872 2320.07 411.096 2319.17 413.048C2318.27 415 2316.93 416.536 2315.14 417.656C2313.38 418.744 2311.15 419.288 2308.47 419.288ZM2308.47 415.688C2310.32 415.688 2311.83 415.272 2312.98 414.44C2314.16 413.608 2315.03 412.488 2315.57 411.08C2316.15 409.672 2316.43 408.104 2316.43 406.376C2316.43 404.648 2316.15 403.08 2315.57 401.672C2315.03 400.264 2314.16 399.144 2312.98 398.312C2311.83 397.48 2310.32 397.064 2308.47 397.064C2306.64 397.064 2305.14 397.48 2303.95 398.312C2302.8 399.144 2301.94 400.264 2301.36 401.672C2300.82 403.08 2300.55 404.648 2300.55 406.376C2300.55 408.104 2300.82 409.672 2301.36 411.08C2301.94 412.488 2302.8 413.608 2303.95 414.44C2305.14 415.272 2306.64 415.688 2308.47 415.688ZM2325.97 419V393.704H2329.91L2330.1 397.64C2330.74 396.648 2331.48 395.848 2332.31 395.24C2333.17 394.632 2334.12 394.184 2335.14 393.896C2336.2 393.576 2337.33 393.416 2338.55 393.416C2338.77 393.416 2338.98 393.416 2339.17 393.416C2339.4 393.416 2339.62 393.416 2339.85 393.416V397.256H2338.36C2336.37 397.256 2334.76 397.688 2333.51 398.552C2332.29 399.384 2331.41 400.52 2330.87 401.96C2330.33 403.368 2330.05 404.936 2330.05 406.664V419H2325.97ZM2343.88 419V393.704H2347.82L2348.01 396.728C2348.55 395.96 2349.16 395.336 2349.83 394.856C2350.54 394.376 2351.3 394.024 2352.14 393.8C2353 393.544 2353.91 393.416 2354.87 393.416C2356.63 393.416 2358.06 393.8 2359.14 394.568C2360.23 395.304 2361.05 396.28 2361.59 397.496C2362.17 396.632 2362.82 395.896 2363.56 395.288C2364.33 394.68 2365.18 394.216 2366.1 393.896C2367.06 393.576 2368.12 393.416 2369.27 393.416C2371.13 393.416 2372.62 393.816 2373.74 394.616C2374.89 395.416 2375.72 396.504 2376.23 397.88C2376.74 399.224 2377 400.744 2377 402.44V419H2372.92V404.504C2372.92 403.672 2372.87 402.824 2372.78 401.96C2372.71 401.096 2372.52 400.296 2372.2 399.56C2371.88 398.792 2371.4 398.184 2370.76 397.736C2370.15 397.256 2369.29 397.016 2368.17 397.016C2367.11 397.016 2366.22 397.272 2365.48 397.784C2364.78 398.264 2364.2 398.92 2363.75 399.752C2363.3 400.584 2362.98 401.48 2362.79 402.44C2362.6 403.368 2362.5 404.296 2362.5 405.224V419H2358.42V404.456C2358.42 403.656 2358.38 402.824 2358.28 401.96C2358.22 401.096 2358.04 400.296 2357.75 399.56C2357.5 398.792 2357.05 398.184 2356.41 397.736C2355.8 397.256 2354.95 397.016 2353.86 397.016C2352.33 397.016 2351.13 397.464 2350.26 398.36C2349.4 399.224 2348.79 400.296 2348.44 401.576C2348.12 402.824 2347.96 404.056 2347.96 405.272V419H2343.88Z" fill="black"/>
<defs>
<filter id="filter0_d_999_2407" x="2538.34" y="99.7627" width="302.328" height="241.473" filterUnits="userSpaceOnUse" color-interpolation-filters="sRGB">
<feFlood flood-opacity="0" result="BackgroundImageFix"/>
<feColorMatrix in="SourceAlpha" type="matrix" values="0 0 0 0 0 0 0 0 0 0 0 0 0 0 0 0 0 0 127 0" result="hardAlpha"/>
<feOffset dx="1" dy="1"/>
<feGaussianBlur stdDeviation="2"/>
<feColorMatrix type="matrix" values="0 0 0 0 0 0 0 0 0 0 0 0 0 0 0 0 0 0 0.36 0"/>
<feBlend mode="normal" in2="BackgroundImageFix" result="effect1_dropShadow_999_2407"/>
<feBlend mode="normal" in="SourceGraphic" in2="effect1_dropShadow_999_2407" result="shape"/>
</filter>
<radialGradient id="paint0_radial_999_2407" cx="0" cy="0" r="1" gradientUnits="userSpaceOnUse" gradientTransform="translate(1187.79 243.111) rotate(90) scale(62.6953 98.2059)">
<stop offset="0.47" stop-color="#7A4C33"/>
<stop offset="1" stop-color="#52423C"/>
</radialGradient>
<linearGradient id="paint1_linear_999_2407" x1="1110.1" y1="192.578" x2="1298.09" y2="192.578" gradientUnits="userSpaceOnUse">
<stop stop-color="#FF85AE"/>
<stop offset="0.32" stop-color="#FF7DA9"/>
<stop offset="0.82" stop-color="#FF669A"/>
<stop offset="1" stop-color="#FF5C93"/>
</linearGradient>
<linearGradient id="paint2_linear_999_2407" x1="1107.69" y1="158.974" x2="1291.77" y2="158.974" gradientUnits="userSpaceOnUse">
<stop stop-color="#FFB0CB"/>
<stop offset="0.79" stop-color="#F383A9"/>
<stop offset="1" stop-color="#F0769F"/>
</linearGradient>
<linearGradient id="paint3_linear_999_2407" x1="1187.64" y1="103.601" x2="1262.68" y2="103.601" gradientUnits="userSpaceOnUse">
<stop stop-color="#F697B7"/>
<stop offset="0.34" stop-color="#F78FB2"/>
<stop offset="0.86" stop-color="#F878A3"/>
<stop offset="1" stop-color="#F9719F"/>
</linearGradient>
<linearGradient id="paint4_linear_999_2407" x1="1114.41" y1="142.121" x2="1281.93" y2="142.121" gradientUnits="userSpaceOnUse">
<stop stop-color="#F78FB2"/>
<stop offset="0.27" stop-color="#F887AD"/>
<stop offset="0.7" stop-color="#FC709F"/>
<stop offset="1" stop-color="#FF5C93"/>
</linearGradient>
<linearGradient id="paint5_linear_999_2407" x1="1208.51" y1="242.033" x2="1208.51" y2="328.101" gradientUnits="userSpaceOnUse">
<stop stop-color="#4FE8FF"/>
<stop offset="0.5" stop-color="#4BDDF3"/>
<stop offset="1" stop-color="#45CEE3"/>
</linearGradient>
<linearGradient id="paint6_linear_999_2407" x1="742.766" y1="261.516" x2="798.383" y2="330.45" gradientUnits="userSpaceOnUse">
<stop stop-color="white"/>
<stop offset="1" stop-color="white" stop-opacity="0"/>
</linearGradient>
<linearGradient id="paint7_linear_999_2407" x1="761.566" y1="163.6" x2="761.251" y2="246.437" gradientUnits="userSpaceOnUse">
<stop stop-color="white"/>
<stop offset="1" stop-color="white" stop-opacity="0"/>
</linearGradient>
<clipPath id="clip0_999_2407">
<rect x="494" y="1" width="438" height="438" rx="40" fill="white"/>
</clipPath>
</defs>
</svg>
