<svg width="83" height="24" viewBox="0 0 83 24" fill="none" xmlns="http://www.w3.org/2000/svg">
<path d="M19.7039 17.7415L15.5428 13.4999H17.1382C17.6075 13.4999 18.0226 13.2655 18.2205 12.8877C18.4184 12.5109 18.3533 12.0787 18.0497 11.7604L13.9803 7.5001H15.485C15.959 7.5001 16.3861 7.24932 16.5715 6.86215C16.7548 6.48107 16.6684 6.03764 16.3507 5.73344L10.6073 0.22675C10.2932 -0.0755833 9.70728 -0.0755833 9.39269 0.22675L3.64881 5.73344C3.3311 6.03764 3.24516 6.48107 3.42797 6.86215C3.61339 7.24932 4.04101 7.5001 4.51498 7.5001H6.0197L1.94981 11.7614C1.6472 12.0792 1.5821 12.5109 1.7795 12.8882C1.97742 13.2655 2.39201 13.4999 2.86181 13.4999H4.45716L0.296129 17.7415C-0.0163781 18.0597 -0.087213 18.4957 0.110708 18.8786C0.306025 19.2559 0.735723 19.4997 1.205 19.4997H8.33329V20.6457L6.75565 22.9144C6.47857 23.4131 6.8817 24 7.50098 24H12.499C13.1183 24 13.5214 23.4131 13.2443 22.9144L11.6667 20.6457V19.4997H18.795C19.2643 19.4997 19.694 19.2559 19.8893 18.8786C20.0872 18.4957 20.0164 18.0597 19.7039 17.7415Z" fill="#004D40"/>
<path d="M38.4453 9.5625C38.0469 8.13281 36.8984 7.3125 35.2344 7.3125C32.75 7.3125 31.1562 9.1875 31.1562 12.4922C31.1562 15.8203 32.6562 17.7188 35.2344 17.7188C37.4961 17.7188 38.7734 16.5352 38.8203 14.6953H35.3984V11.7656H42.6641V13.9922C42.6641 18.5156 39.5469 21.2344 35.2109 21.2344C30.3594 21.2344 27.0781 17.9062 27.0781 12.5391C27.0781 6.98438 30.6406 3.79688 35.1406 3.79688C39.0547 3.79688 42.0781 6.1875 42.5 9.5625H38.4453ZM49.0625 4.03125V21H45.0781V4.03125H49.0625ZM55.3203 4.03125L59.1875 16.5469H59.3281L63.1953 4.03125H67.6484L61.9062 21H56.6094L50.8438 4.03125H55.3203ZM69.4531 21V4.03125H81.1953V7.28906H73.4375V10.875H80.5859V14.1328H73.4375V17.7422H81.2188V21H69.4531Z" fill="#4DB6AC"/>
</svg>
